<svg width="80" height="65" viewBox="0 0 80 65" fill="none" xmlns="http://www.w3.org/2000/svg">
<path d="M49.6749 4.28805C50.4182 5.1216 51.0347 6.02897 51.5685 6.98645C51.9129 7.60414 52.1409 8.30043 52.3791 8.97818C52.5753 9.53654 52.6952 10.1247 52.8745 10.6904C53.3312 12.132 53.1234 13.6203 53.155 15.0902C53.1655 15.5777 53.1158 16.0799 53.0091 16.5539C52.8647 17.1957 52.6429 17.8182 52.4466 18.4462C52.2961 18.9279 52.1708 19.4241 51.9668 19.8797C51.7348 20.398 51.4488 20.8934 51.1474 21.3711C50.8499 21.8426 50.534 22.3091 50.1722 22.7246C49.6265 23.351 49.0587 23.9611 48.4555 24.5239C47.5118 25.4046 46.4481 26.118 45.2739 26.5802C44.2767 26.9728 43.2439 27.3133 42.1989 27.5076C40.0624 27.9049 37.9309 27.7425 35.8621 27.0339C34.4818 26.561 33.2017 25.8633 32.036 24.9197C31.1386 24.1932 30.3302 23.3782 29.6133 22.4629C29.2746 22.0305 28.9946 21.5411 28.7237 21.0551C28.3629 20.408 27.9806 19.7637 27.7119 19.0724C27.457 18.4164 27.3401 17.7003 27.1561 17.0125C26.73 15.4203 26.8345 13.8004 26.9275 12.181C26.9484 11.8186 26.9486 11.4513 27.0091 11.096C27.0877 10.6348 27.187 10.1723 27.3323 9.73073C27.5088 9.19447 27.7266 8.6715 27.9558 8.15753C28.196 7.61887 28.4427 7.07905 28.7383 6.57403C29.0432 6.05326 29.3999 5.56515 29.7538 5.0791C30.0204 4.71293 30.2968 4.34926 30.6064 4.02504C31.5299 3.05789 32.5577 2.24679 33.7022 1.58028C35.1058 0.762899 36.592 0.242456 38.1658 0.0440463C38.9676 -0.057031 39.7908 0.0527688 40.6022 0.0154056C42.2234 -0.0592444 43.7509 0.350674 45.2279 0.998388C46.3029 1.46983 47.2991 2.11 48.216 2.8687C48.7277 3.29208 49.1783 3.79899 49.6749 4.28805Z" fill="white"/>
<path d="M26.5744 22.4976C26.7803 22.7853 26.9838 23.0748 27.1925 23.3601C27.6275 23.9549 28.0496 24.5615 28.5075 25.1359C28.8147 25.5213 29.1511 25.8893 29.516 26.212C30.0432 26.6783 30.597 27.1135 31.1604 27.5299C31.6164 27.867 32.0901 28.1832 32.5799 28.4609C33.1857 28.8043 33.7969 29.1564 34.4409 29.3998C35.3258 29.7342 36.2343 30.0147 37.1505 30.2337C37.8338 30.397 38.5436 30.455 39.2451 30.5062C39.8365 30.5494 40.4395 30.5756 41.0254 30.5018C42.0306 30.3752 43.0349 30.2062 44.0233 29.9758C44.7725 29.8012 45.4963 29.5034 46.2815 29.2637C46.4417 29.1901 46.5518 29.1133 46.6619 29.0364C46.6937 29.0314 46.7255 29.0263 46.8034 29.0251C46.9671 29.0022 47.1 29.0043 47.1996 28.9442C47.8899 28.5276 48.5761 28.1032 49.2554 27.6669C49.3499 27.6063 49.3991 27.4661 49.4693 27.3627C49.4693 27.3627 49.4692 27.3688 49.4937 27.365C49.6595 27.2885 49.8191 27.2405 49.9396 27.1397C51.8287 25.5605 53.3491 23.6515 54.43 21.3644C54.6471 20.9049 54.776 20.3982 54.9665 19.8981C55.0392 19.8114 55.1109 19.748 55.14 19.6672C55.599 18.3928 55.9146 17.0794 56.0364 15.7197C56.0519 15.5467 55.9457 15.3613 55.8959 15.1816C55.8959 14.9887 55.8959 14.7958 55.8959 14.5824C58.1732 14.5824 60.4091 14.5824 62.6729 14.5824C62.6729 23.7082 62.6729 32.8264 62.6729 41.968C60.1563 41.968 57.6503 41.968 55.1025 41.968C55.1025 38.6457 55.1025 35.3283 55.1025 31.9849C54.4412 32.493 53.8263 32.9822 53.1945 33.4456C52.6289 33.8604 52.053 34.2611 51.4663 34.6414C50.9063 35.0044 50.3386 35.3592 49.751 35.6673C49.3798 35.8619 48.9641 35.9595 48.5712 36.1093C48.1768 36.2597 47.7908 36.4366 47.3926 36.574C46.696 36.8144 46.0055 37.1117 45.2895 37.2423C44.2878 37.425 43.3032 37.7222 42.2608 37.6855C41.0615 37.6432 39.8586 37.7293 38.6571 37.7425C38.2927 37.7464 37.9277 37.6933 37.5116 37.6416C37.0145 37.5432 36.567 37.4801 36.1233 37.394C32.7446 36.7386 29.6274 35.4106 26.8178 33.2927C26.5175 33.0664 26.2078 32.8543 25.8894 32.6132C25.6726 32.4705 25.4689 32.3501 25.2652 32.2297C25.2652 32.2297 25.2523 32.2282 25.2511 32.1927C25.1516 31.9979 25.0743 31.8171 24.9515 31.6832C24.3428 31.0195 23.6998 30.39 23.11 29.7083C21.616 27.9814 20.4341 26.0276 19.5101 23.9005C18.3954 21.3344 17.7524 18.633 17.5129 15.8195C17.5036 15.711 17.3984 15.6116 17.3379 15.508C17.3379 15.2099 17.3379 14.9118 17.3379 14.5649C19.5663 14.5649 21.7757 14.5649 24.0239 14.6018C24.1318 15.1686 24.2026 15.6983 24.2698 16.2285C24.5187 18.1936 25.1407 20.029 26.0041 21.7745C26.1386 22.0466 26.3816 22.2581 26.5744 22.4976Z" fill="white"/>
<path d="M56.4193 47.4929C56.4194 48.2395 56.4304 48.9471 56.4147 49.654C56.4077 49.9675 56.4926 50.0946 56.808 50.092C58.4214 50.0788 60.035 50.0787 61.6483 50.092C61.9653 50.0947 62.0437 49.9643 62.0403 49.6527C62.028 48.5133 62.0235 47.3733 62.0475 46.2343C62.0518 46.0298 62.1656 45.7915 62.2972 45.633C62.7964 45.0319 63.3172 44.4505 63.8458 43.8783C63.9485 43.7672 64.1221 43.7303 64.263 43.6592C64.3088 43.8069 64.3937 43.9543 64.3944 44.1023C64.4037 45.923 64.4 47.7438 64.4011 49.5645C64.4014 50.0832 64.4036 50.0858 64.8897 50.086C67.5994 50.0868 70.3091 50.0793 73.0186 50.0946C73.3911 50.0967 73.5008 49.9827 73.4982 49.5854C73.4826 47.1491 73.49 44.7126 73.491 42.2763C73.4912 41.7586 73.4936 41.7574 73.9807 41.7559C74.4611 41.7543 74.9423 41.7748 75.4214 41.7492C75.7619 41.731 75.8627 41.861 75.8613 42.2186C75.8504 45.192 75.8553 48.1654 75.8552 51.1389C75.8552 51.296 75.8868 51.4654 75.8415 51.6065C75.8054 51.7192 75.6885 51.8328 75.5816 51.8809C75.4768 51.9281 75.3393 51.8941 75.2161 51.8941C62.5177 51.8942 49.8194 51.886 37.121 51.9152C36.3831 51.9169 35.3255 51.0085 35.1052 50.3909C35.0633 50.2735 35.0638 50.1346 35.0637 50.0055C35.0614 47.4382 35.0669 44.8708 35.0562 42.3034C35.0547 41.955 35.1403 41.8084 35.4898 41.8273C35.9935 41.8546 36.4994 41.833 37.0044 41.8344C37.4972 41.8358 37.4997 41.837 37.4999 42.3486C37.501 44.7326 37.5002 47.1166 37.5007 49.5006C37.5008 50.0848 37.5019 50.086 38.0403 50.0862C39.8262 50.0868 41.6122 50.0778 43.398 50.0937C43.7471 50.0968 43.8699 49.9951 43.8634 49.6098C43.8428 48.4051 43.8947 47.1979 43.8422 45.9954C43.808 45.2129 44.2169 44.7668 44.7509 44.45C45.1083 44.2379 45.5664 44.1307 45.9804 44.1276C49.3181 44.1027 52.6559 44.1186 55.9937 44.1061C56.345 44.1048 56.4309 44.2395 56.4248 44.5851C56.4081 45.541 56.4192 46.4974 56.4193 47.4929ZM48.2531 45.9995C47.7359 45.9997 47.2183 46.0131 46.7016 45.9949C46.407 45.9845 46.2847 46.0768 46.2895 46.4128C46.3051 47.4996 46.3052 48.587 46.2895 49.6738C46.2846 50.0105 46.4087 50.0924 46.702 50.0912C48.9679 50.0819 51.234 50.0795 53.4999 50.0932C53.836 50.0952 53.9167 49.9642 53.9119 49.634C53.8968 48.5865 53.8886 47.538 53.9152 46.491C53.9258 46.077 53.7832 45.9888 53.4255 45.9923C51.7261 46.0088 50.0265 45.9996 48.2531 45.9995Z" fill="white"/>
<path d="M20.0906 50.059C20.1505 49.8857 20.2021 49.7242 20.2032 49.5622C20.2105 48.4884 20.2599 47.4107 20.1941 46.3414C20.1059 44.9106 21.2036 44.135 22.2503 44.1259C25.6365 44.0963 29.0231 44.1169 32.4096 44.1101C32.6807 44.1096 32.7746 44.2082 32.7737 44.497C32.7662 46.8412 32.7668 49.1855 32.7728 51.5298C32.7735 51.7995 32.6848 51.9187 32.4289 51.8952C32.3189 51.885 32.2074 51.8945 32.0966 51.8945C21.6293 51.8946 11.1621 51.8946 0.694863 51.8945C0.584035 51.8945 0.472718 51.8863 0.362482 51.8947C0.131262 51.9122 0.0297269 51.8168 0.0304644 51.5575C0.0361207 49.5669 0.0151915 47.5759 0.0466664 45.5858C0.0544517 45.0936 0.447827 44.7358 0.818775 44.5351C1.24206 44.3062 1.74546 44.1364 2.21577 44.1316C5.49109 44.0979 8.76686 44.1134 12.0425 44.1142C12.5187 44.1144 12.5205 44.1173 12.5209 44.6464C12.5219 46.2966 12.5303 47.9468 12.5147 49.5968C12.5112 49.9644 12.6015 50.0976 12.9666 50.0944C15.3306 50.0739 17.6947 50.076 20.0906 50.059ZM8.41978 45.9999C6.5725 46.0001 4.72519 46.0052 2.87796 45.9952C2.58465 45.9936 2.46063 46.0759 2.46544 46.4125C2.48113 47.5125 2.47589 48.6129 2.46833 49.713C2.46654 49.9727 2.53867 50.0904 2.80348 50.0896C5.14334 50.0826 7.48324 50.0837 9.82312 50.0884C10.0513 50.0888 10.1598 50.0153 10.158 49.7529C10.1505 48.6135 10.1505 47.4739 10.158 46.3345C10.1598 46.0727 10.0527 45.9933 9.82365 45.9983C9.3805 46.008 8.93702 46.0004 8.41978 45.9999ZM28.0776 50.0869C28.6933 50.0867 29.3094 50.0745 29.9247 50.0917C30.2192 50.0999 30.3417 50.0098 30.3368 49.6737C30.3212 48.5869 30.3211 47.4995 30.3368 46.4126C30.3417 46.076 30.2178 45.994 29.9244 45.9952C27.6584 46.0045 25.3924 46.0069 23.1265 45.9933C22.7904 45.9912 22.7097 46.1221 22.7144 46.4524C22.7295 47.4999 22.7377 48.5484 22.7111 49.5954C22.7006 50.0093 22.8429 50.098 23.2008 50.0942C24.8016 50.0771 26.4027 50.0868 28.0776 50.0869Z" fill="white"/>
<path d="M70.5346 62.4259C70.5343 63.159 70.5259 63.853 70.5379 64.5466C70.5427 64.8251 70.467 64.9532 70.1836 64.9448C69.6302 64.9283 69.0756 64.9287 68.5221 64.9447C68.2412 64.9528 68.1649 64.827 68.1666 64.5481C68.175 63.1867 68.1606 61.8251 68.1724 60.4637C68.184 59.1281 67.6826 58.7399 66.4713 58.6548C66.3272 58.6447 66.1821 58.6535 66.1005 58.6535C66.1005 59.6778 66.1006 60.6513 66.1005 61.6248C66.1004 62.5936 66.0928 63.5624 66.1043 64.531C66.1078 64.8283 66.0255 64.9568 65.7272 64.9457C65.1986 64.926 64.6679 64.9211 64.1398 64.9473C63.7989 64.9642 63.728 64.8106 63.7307 64.4852C63.7427 63.0452 63.7509 61.6048 63.7247 60.1653C63.7183 59.8127 63.6673 59.3828 63.4724 59.1341C63.2741 58.8811 62.8769 58.6888 62.56 58.677C61.3761 58.6326 61.6067 58.508 61.5964 59.6084C61.5813 61.2316 61.584 62.8551 61.5987 64.4783C61.602 64.8368 61.4971 64.9624 61.158 64.9472C60.605 64.9225 60.0502 64.9314 59.4966 64.9436C59.2423 64.9493 59.1507 64.8482 59.1513 64.5773C59.1572 62.0507 59.1602 59.5241 59.1485 56.9975C59.1467 56.6307 59.3192 56.6063 59.5847 56.6069C61.9234 56.6123 64.2622 56.6099 66.601 56.6098C66.9949 56.6098 67.3888 56.6106 67.7827 56.6097C68.6332 56.6076 69.2334 57.0533 69.767 57.7322C70.3946 58.5308 70.5622 59.4318 70.5377 60.423C70.5215 61.0771 70.5346 61.732 70.5346 62.4259Z" fill="white"/>
<path d="M44.3468 64.8168C44.1099 64.8807 43.8846 64.9295 43.658 64.937C43.2398 64.9509 42.8202 64.9244 42.4025 64.9458C42.0923 64.9618 42.0011 64.8328 42.0037 64.5138C42.0155 63.0866 42.0092 61.6593 42.0082 60.232C42.0074 58.995 41.1592 58.317 40.0418 58.6773C39.9602 58.7036 39.8769 58.8884 39.8744 59.0016C39.8587 59.7083 39.8656 60.4155 39.8654 61.1226C39.865 62.2487 39.8542 63.375 39.8714 64.5008C39.8767 64.8487 39.7672 64.96 39.4464 64.9469C38.8932 64.9243 38.3383 64.9295 37.7846 64.9447C37.5098 64.9522 37.4226 64.8394 37.4233 64.5542C37.4303 62.027 37.43 59.4999 37.4241 56.9727C37.4235 56.7006 37.5173 56.6069 37.7702 56.6074C40.6266 56.6133 43.4833 56.5912 46.3393 56.6268C46.9955 56.635 47.5224 57.0623 47.9275 57.6185C48.0687 57.8123 48.2067 58.0089 48.3407 58.2083C48.7147 58.7648 48.7994 59.4092 48.8041 60.066C48.8144 61.5325 48.796 62.9993 48.8147 64.4656C48.8196 64.852 48.6963 64.966 48.3477 64.9476C47.8441 64.921 47.3378 64.9249 46.8338 64.9462C46.5204 64.9594 46.4353 64.8264 46.4379 64.5108C46.4495 63.1229 46.426 61.7346 46.447 60.347C46.4695 58.8661 45.4464 58.5958 44.4092 58.6749C44.3466 58.6797 44.2444 58.855 44.2466 58.9487C44.2805 60.4488 44.3326 61.9484 44.3708 63.4484C44.3821 63.8929 44.363 64.3382 44.3468 64.8168Z" fill="white"/>
<path d="M79.4783 58.1834C79.771 58.7891 79.9988 59.3869 79.996 60.0601C79.9899 61.5403 79.9853 63.0205 80.0002 64.5005C80.0037 64.8473 79.8975 64.9606 79.5758 64.9473C79.0224 64.9246 78.4674 64.934 77.9133 64.9437C77.6751 64.9478 77.5483 64.8816 77.5512 64.5936C77.5543 64.285 77.6197 63.8408 77.4639 63.7018C77.2762 63.5343 76.8843 63.6117 76.5805 63.6082C75.8539 63.5996 75.1271 63.6135 74.4006 63.6019C74.13 63.5975 74.0048 63.6695 74.0018 63.9949C73.9932 64.9416 73.9803 64.9415 73.0678 64.9414C72.686 64.9413 72.3039 64.932 71.9225 64.9437C71.6791 64.9512 71.5662 64.871 71.5669 64.5884C71.5734 62.0473 71.5734 59.5061 71.5669 56.965C71.5662 56.684 71.6763 56.6071 71.9209 56.608C73.7806 56.6141 75.6411 56.5817 77.4998 56.6277C78.1454 56.6437 78.6433 57.116 79.0831 57.5969C79.2326 57.7604 79.3333 57.9745 79.4783 58.1834ZM77.1331 61.4829C77.4474 61.5278 77.5886 61.4009 77.5597 61.0467C77.5365 60.7608 77.553 60.471 77.5557 60.183C77.5623 59.4764 76.9306 58.6588 76.1622 58.6554C75.559 58.6527 74.9557 58.6629 74.3527 58.6511C74.1004 58.6462 74.001 58.7424 74.0055 59.0157C74.0168 59.6963 74.0208 60.3776 74.0034 61.0579C73.9952 61.3798 74.0966 61.4943 74.4039 61.4886C75.29 61.4721 76.1765 61.483 77.1331 61.4829Z" fill="white"/>
<path d="M57.9483 64.9391C57.3475 64.94 56.7809 64.9297 56.2148 64.9447C55.9367 64.952 55.8247 64.863 55.8221 64.5453C55.8145 63.6046 55.8024 63.6047 54.9196 63.6048C54.1439 63.6049 53.368 63.6139 52.5925 63.6008C52.3129 63.596 52.2036 63.6856 52.201 64.0015C52.1935 64.941 52.1816 64.9411 51.2973 64.9408C50.9156 64.9407 50.5338 64.9334 50.1522 64.9414C49.9363 64.9459 49.841 64.8599 49.8416 64.6209C49.8463 62.8924 49.7688 61.1587 49.8734 59.4374C49.9334 58.4495 50.4872 57.6272 51.2984 57.0512C51.7898 56.7023 52.3119 56.5903 52.8991 56.6002C54.5364 56.6278 56.1743 56.6195 57.8118 56.6024C58.1648 56.5988 58.276 56.7097 58.2738 57.0899C58.2598 59.5516 58.2674 62.0135 58.2651 64.4754C58.2649 64.6874 58.323 64.9544 57.9483 64.9391ZM54.756 61.4827C55.0018 61.4822 55.2479 61.4735 55.4933 61.4838C55.7197 61.4932 55.833 61.4142 55.8296 61.1507C55.8203 60.4319 55.8208 59.7128 55.8296 58.994C55.8328 58.739 55.7357 58.6481 55.5016 58.6516C54.8749 58.661 54.2462 58.6235 53.6217 58.6646C53.0487 58.7022 52.4558 59.0666 52.3227 59.7601C52.2428 60.1761 52.2485 60.6102 52.2055 61.035C52.1715 61.3712 52.2869 61.5001 52.6176 61.4892C53.3052 61.4664 53.994 61.4825 54.756 61.4827Z" fill="white"/>
<path d="M30.0219 64.9406C29.4452 64.9402 28.9036 64.9326 28.3623 64.9425C28.1231 64.9469 28.0382 64.8444 28.0391 64.5943C28.045 62.9845 27.9627 61.3687 28.0686 59.7668C28.1482 58.563 28.7197 57.5708 29.7643 56.9274C30.198 56.6603 30.6248 56.6037 31.0965 56.6063C32.7332 56.6153 34.3701 56.619 36.0067 56.6026C36.3548 56.5991 36.4747 56.7006 36.4724 57.0856C36.458 59.5461 36.4603 62.0068 36.4705 64.4673C36.4719 64.8096 36.3963 64.9672 36.0411 64.9478C35.5256 64.9195 35.0072 64.9248 34.4911 64.946C34.1772 64.9589 34.0715 64.8256 34.098 64.5101C34.1133 64.3284 34.0892 64.1431 34.1017 63.9609C34.1209 63.681 33.9967 63.6 33.7507 63.6022C32.7785 63.6108 31.8062 63.6131 30.8341 63.6009C30.5565 63.5974 30.4568 63.7125 30.4777 63.9948C30.4902 64.1638 30.464 64.3367 30.4821 64.5046C30.5202 64.8584 30.371 64.9853 30.0219 64.9406ZM30.4924 60.0746C30.4883 60.4146 30.4944 60.7553 30.4769 61.0946C30.4623 61.3789 30.5601 61.4898 30.8358 61.4864C31.8077 61.4744 32.78 61.4736 33.7518 61.4867C34.0372 61.4905 34.1084 61.362 34.1036 61.0862C34.0918 60.406 34.0869 59.725 34.1053 59.0451C34.1141 58.7211 33.9836 58.6428 33.7105 58.6497C33.1694 58.6635 32.6275 58.6642 32.0864 58.6507C31.3495 58.6324 30.617 59.1173 30.4924 60.0746Z" fill="white"/>
<path d="M5.90941 63.6168C4.86644 63.61 3.85681 63.6167 2.8475 63.6007C2.55426 63.596 2.46864 63.7107 2.46621 64.012C2.4587 64.9416 2.44883 64.9416 1.58947 64.9414C1.18319 64.9414 0.776782 64.9339 0.370687 64.9429C0.146862 64.9479 0.030011 64.8792 0.031107 64.6122C0.0377669 62.9886 -0.061333 61.3566 0.0631976 59.7439C0.178533 58.2502 0.92142 57.25 2.25949 56.6561C2.36741 56.6082 2.50045 56.6126 2.62185 56.6124C4.41933 56.6099 6.21686 56.6173 8.01426 56.6045C8.33974 56.6022 8.46603 56.6916 8.46399 57.0639C8.45045 59.5385 8.45257 62.0132 8.46226 64.4879C8.46354 64.8162 8.38939 64.9648 8.05103 64.9478C7.5351 64.9219 7.01633 64.9221 6.50038 64.9478C6.16428 64.9645 6.05959 64.8213 6.08966 64.4895C6.10612 64.3079 6.10866 64.1205 6.08437 63.9408C6.06932 63.8295 5.99216 63.7277 5.90941 63.6168ZM6.09242 60.1078C6.09199 59.7412 6.08409 59.3745 6.09376 59.0082C6.10018 58.7649 6.02395 58.6485 5.77777 58.6523C5.12551 58.6623 4.4722 58.6339 3.82084 58.6617C3.11685 58.6916 2.43162 59.4571 2.46922 60.1483C2.48341 60.4093 2.47068 60.6719 2.47148 60.9337C2.47316 61.4804 2.47351 61.4821 2.97143 61.4828C3.84541 61.4842 4.71939 61.4842 5.59337 61.4828C6.09019 61.482 6.09048 61.4803 6.09222 60.9325C6.093 60.6837 6.0924 60.435 6.09242 60.1078Z" fill="white"/>
<path d="M20.7988 57.7103C20.7993 58.0374 20.7919 58.3258 20.8018 58.6134C20.8229 59.2245 21.2337 59.6634 21.8113 59.6713C22.636 59.6825 23.461 59.6659 24.2856 59.6791C24.5623 59.6835 24.6493 59.5697 24.645 59.2864C24.6334 58.5272 24.6491 57.7676 24.6386 57.0085C24.6348 56.7347 24.701 56.598 24.9888 56.6062C25.5793 56.6229 26.1706 56.6184 26.7613 56.6084C27.0033 56.6043 27.0829 56.7122 27.0819 56.9596C27.0761 58.4259 27.1278 59.8947 27.0632 61.3578C27.0138 62.4793 26.6976 63.5232 25.7965 64.265C25.2028 64.7537 24.5105 64.8993 23.8053 64.9285C22.7113 64.9738 21.6144 64.9338 20.5189 64.9452C20.2391 64.9481 20.1151 64.8609 20.1295 64.5438C20.149 64.1128 20.1482 63.6793 20.1295 63.2482C20.1157 62.9304 20.2144 62.8064 20.526 62.8137C21.3012 62.8316 22.0787 62.8518 22.8518 62.8052C23.245 62.7815 23.6447 62.6533 24.014 62.4983C24.2035 62.4188 24.3328 62.1767 24.4893 62.008C24.4732 61.9741 24.4572 61.9402 24.4411 61.9063C24.3132 61.8962 24.1852 61.8778 24.0573 61.8774C23.1709 61.8747 22.2836 61.9029 21.3985 61.8677C20.5745 61.8349 19.792 61.6254 19.2112 60.931C18.7331 60.3594 18.4669 59.6881 18.4346 58.9197C18.4067 58.255 18.3904 57.5897 18.3583 56.9253C18.3448 56.6467 18.4297 56.52 18.7116 56.5277C19.2898 56.5435 19.8689 56.5434 20.4471 56.5277C20.7289 56.52 20.8166 56.6465 20.801 56.9252C20.7871 57.173 20.7985 57.4225 20.7988 57.7103Z" fill="white"/>
<path d="M10.4078 64.2032C9.68218 63.3597 9.51816 62.336 9.4987 61.2818C9.47213 59.8422 9.49843 58.4016 9.48694 56.9616C9.48442 56.6465 9.56863 56.513 9.8824 56.5259C10.3987 56.5471 10.9173 56.5526 11.4329 56.5241C11.7896 56.5043 11.8647 56.6644 11.8616 57.0057C11.8488 58.4588 11.8792 59.9127 11.8483 61.3652C11.828 62.319 12.3936 62.8175 13.2392 62.8183C14.4826 62.8194 15.7261 62.8303 16.9692 62.8116C17.3145 62.8064 17.4225 62.934 17.404 63.2865C17.3814 63.7172 17.3916 64.1504 17.4003 64.5823C17.4051 64.8214 17.3382 64.9433 17.0883 64.9422C15.4387 64.9354 13.7888 64.9588 12.1397 64.9275C11.5079 64.9156 10.9193 64.6748 10.4078 64.2032Z" fill="white"/>
<path d="M77.6291 47.1786C77.6292 45.5414 77.6388 43.9434 77.6222 42.3457C77.6182 41.9649 77.7014 41.7999 78.0916 41.8259C78.6068 41.8602 79.1257 41.8427 79.6427 41.8316C79.8875 41.8263 79.9971 41.9072 79.9965 42.1884C79.9905 45.3055 79.9905 48.4227 79.9965 51.5399C79.9971 51.821 79.8877 51.9017 79.6428 51.8968C79.0888 51.8858 78.5342 51.8816 77.9804 51.8982C77.6974 51.9067 77.6241 51.7797 77.6258 51.5007C77.6343 50.0731 77.6294 48.6455 77.6291 47.1786Z" fill="white"/>
<path d="M67.8559 53.3883C68.1694 53.3538 68.2519 53.4983 68.2464 53.7787C68.2244 54.9062 68.3724 54.7173 67.379 54.7204C64.3661 54.7298 61.3531 54.7241 58.3402 54.7234C57.8261 54.7233 57.8209 54.7214 57.8247 54.1935C57.8314 53.2756 57.7285 53.3908 58.5609 53.3896C61.6476 53.385 64.7344 53.3879 67.8559 53.3883Z" fill="white"/>
<path d="M4.91033 41.2056C7.29951 41.2056 9.65173 41.2052 12.004 41.206C12.5195 41.2061 12.5248 41.2079 12.5209 41.7358C12.5142 42.6544 12.6176 42.5385 11.7829 42.5398C8.75335 42.5446 5.72378 42.542 2.69421 42.5413C2.17863 42.5412 2.17337 42.5393 2.17724 42.0115C2.18397 41.0929 2.08055 41.2152 2.91525 41.2069C3.56791 41.2004 4.22067 41.2056 4.91033 41.2056Z" fill="white"/>
<path d="M17.333 15.5439C17.398 15.6118 17.5032 15.7112 17.5125 15.8198C17.752 18.6333 18.395 21.3346 19.5097 23.9007C20.4337 26.0278 21.6156 27.9816 23.1096 29.7085C23.6994 30.3903 24.3424 31.0198 24.9511 31.6835C25.0739 31.8173 25.1512 31.9982 25.2498 32.186C24.7056 31.6913 24.142 31.1881 23.6219 30.6385C23.1378 30.127 22.6823 29.5816 22.2471 29.0222C21.845 28.5054 21.4459 27.9767 21.1176 27.4062C20.4976 26.3291 19.8813 25.2437 19.3516 24.115C18.6557 22.6319 18.135 21.066 17.852 19.4322C17.6312 18.1571 17.4997 16.8645 17.333 15.5439Z" fill="white"/>
<path d="M25.9028 32.6353C26.2082 32.8539 26.5179 33.066 26.8182 33.2923C29.6278 35.4102 32.745 36.7382 36.1238 37.3936C36.5674 37.4797 37.015 37.5428 37.4797 37.6358C36.6831 37.7468 35.9132 37.4805 35.1315 37.3107C34.4946 37.1723 33.8545 37.0453 33.226 36.8715C32.8108 36.7566 32.4034 36.5922 32.0105 36.4069C31.0363 35.9476 30.0584 35.4928 29.1093 34.9792C28.4513 34.6232 27.829 34.1881 27.2088 33.7588C26.7326 33.4292 26.2847 33.0533 25.8418 32.6683C25.8738 32.6374 25.8883 32.6363 25.9028 32.6353Z" fill="white"/>
<path d="M54.9455 19.9131C54.7759 20.3981 54.647 20.9048 54.4299 21.3643C53.349 23.6514 51.8287 25.5604 49.9396 27.1396C49.819 27.2403 49.6595 27.2884 49.4907 27.3648C49.6701 27.1694 49.8676 26.9581 50.085 26.7731C50.9941 25.9992 51.8185 25.1404 52.5079 24.1369C52.8279 23.6709 53.2151 23.2527 53.501 22.7657C53.8184 22.2252 54.0582 21.6327 54.3259 21.0598C54.5164 20.6521 54.6973 20.2394 54.9119 19.8472C54.9427 19.8813 54.9441 19.8972 54.9455 19.9131Z" fill="white"/>
<path d="M26.562 22.4713C26.3822 22.2579 26.1392 22.0464 26.0047 21.7743C25.1413 20.0287 24.5193 18.1934 24.2704 16.2283C24.2032 15.6981 24.1324 15.1684 24.0591 14.6069C24.1262 14.615 24.2496 14.6432 24.2599 14.6961C24.306 14.935 24.3101 15.1827 24.3476 15.424C24.4662 16.1866 24.5552 16.9575 24.7269 17.7067C24.9036 18.4774 25.1401 19.2357 25.3969 19.9814C25.5417 20.4017 25.7848 20.783 25.9751 21.1864C26.1718 21.6031 26.3581 22.0254 26.562 22.4713Z" fill="white"/>
<path d="M54.9664 19.8977C54.9441 19.8969 54.9428 19.881 54.9395 19.8412C55.1341 19.0307 55.2765 18.2225 55.5429 17.4636C55.8016 16.7263 55.7007 15.9608 55.8714 15.2017C55.9456 15.3609 56.0519 15.5463 56.0364 15.7194C55.9146 17.079 55.599 18.3924 55.1399 19.6668C55.1109 19.7476 55.0392 19.811 54.9664 19.8977Z" fill="white"/>
<path d="M49.4428 27.3682C49.3993 27.4664 49.35 27.6066 49.2556 27.6672C48.5763 28.1035 47.8901 28.5279 47.1998 28.9445C47.1001 29.0046 46.9672 29.0025 46.8276 29.0229C47.1737 28.7845 47.5409 28.5509 47.9102 28.321C48.2291 28.1224 48.5514 27.9301 48.87 27.731C49.0543 27.6158 49.2343 27.4928 49.4428 27.3682Z" fill="white"/>
<path d="M25.8894 32.6123C25.888 32.6357 25.8735 32.6368 25.8372 32.6394C25.6427 32.5173 25.4699 32.3937 25.2812 32.25C25.469 32.3499 25.6727 32.4699 25.8894 32.6123Z" fill="white"/>
<path d="M46.6376 29.0415C46.5521 29.1132 46.442 29.1899 46.3096 29.2603C46.3958 29.1849 46.5044 29.1157 46.6376 29.0415Z" fill="white"/>
</svg>
