<svg width="67" height="67" viewBox="0 0 67 67" fill="none" xmlns="http://www.w3.org/2000/svg">
<path d="M41.1766 62.0941H25.823C11.928 62.0941 5.99121 56.1574 5.99121 42.2623V26.9087C5.99121 13.0137 11.9279 7.0769 25.823 7.0769H36.0588C37.1079 7.0769 37.978 7.94694 37.978 8.99611C37.978 10.0453 37.1079 10.9153 36.0588 10.9153H25.823C14.0263 10.9153 9.82962 15.112 9.82962 26.9087V42.2623C9.82962 54.059 14.0263 58.2557 25.823 58.2557H41.1766C52.9734 58.2557 57.17 54.0591 57.17 42.2623V29.4676C57.17 28.4185 58.0401 27.5484 59.0892 27.5484C60.1384 27.5484 61.0084 28.4185 61.0084 29.4676V42.2623C61.0084 56.1574 55.0717 62.0941 41.1766 62.0941Z" fill="white"/>
<path d="M43.3509 41.33H19.4547C19.2103 41.33 19.0122 41.1318 19.0122 40.8874V24.9567C19.0122 24.7123 19.2103 24.5142 19.4547 24.5142H43.3509C43.5953 24.5142 43.7934 24.7123 43.7934 24.9567V40.8874C43.7934 41.1318 43.5953 41.33 43.3509 41.33ZM19.8973 40.4449H42.9083V25.3992H19.8973V40.4449Z" fill="white"/>
<path d="M31.403 27.6118C31.1586 27.6118 30.9604 27.4137 30.9604 27.1693V24.9567C30.9604 24.7123 31.1586 24.5142 31.403 24.5142C31.6474 24.5142 31.8455 24.7123 31.8455 24.9567V27.1693C31.8455 27.4137 31.6474 27.6118 31.403 27.6118Z" fill="white"/>
<path d="M33.1728 29.3819H29.6326C29.466 29.3814 29.3138 29.2874 29.2388 29.1386C29.1628 28.9887 29.1782 28.8087 29.2786 28.6739L30.6062 26.9038C30.6898 26.7924 30.8209 26.7268 30.9602 26.7268H31.8452C31.9845 26.7268 32.1157 26.7924 32.1993 26.9038L33.5268 28.6739C33.6273 28.8087 33.6427 28.9887 33.5666 29.1385C33.4917 29.2873 33.3395 29.3814 33.1728 29.3819ZM30.5177 28.4969H32.2878L31.624 27.6119H31.1815L30.5177 28.4969Z" fill="white"/>
<path d="M24.3224 27.6118C24.078 27.6118 23.8799 27.4137 23.8799 27.1693V24.9567C23.8799 24.7123 24.078 24.5142 24.3224 24.5142C24.5668 24.5142 24.7649 24.7123 24.7649 24.9567V27.1693C24.7649 27.4137 24.5668 27.6118 24.3224 27.6118Z" fill="white"/>
<path d="M26.0927 29.3819H22.5526C22.3859 29.3814 22.2337 29.2874 22.1587 29.1386C22.0827 28.9887 22.0981 28.8087 22.1986 28.6739L23.5261 26.9038C23.6097 26.7924 23.7408 26.7268 23.8801 26.7268H24.7652C24.9044 26.7268 25.0356 26.7924 25.1192 26.9038L26.4467 28.6739C26.5472 28.8087 26.5626 28.9887 26.4866 29.1385C26.4116 29.2873 26.2594 29.3814 26.0927 29.3819ZM23.4376 28.4969H25.2077L24.5439 27.6119H24.1014L23.4376 28.4969Z" fill="white"/>
<path d="M38.4831 27.6118C38.2387 27.6118 38.0405 27.4137 38.0405 27.1693V24.9567C38.0405 24.7123 38.2386 24.5142 38.4831 24.5142C38.7275 24.5142 38.9256 24.7123 38.9256 24.9567V27.1693C38.9256 27.4137 38.7275 27.6118 38.4831 27.6118Z" fill="white"/>
<path d="M40.2534 29.3819H36.7132C36.5466 29.3814 36.3943 29.2874 36.3194 29.1386C36.2433 28.9887 36.2588 28.8087 36.3592 28.6739L37.6868 26.9038C37.7703 26.7924 37.9015 26.7268 38.0408 26.7268H38.9258C39.0651 26.7268 39.1963 26.7924 39.2798 26.9038L40.6074 28.6739C40.7078 28.8087 40.7232 28.9887 40.6472 29.1385C40.5722 29.2873 40.42 29.3814 40.2534 29.3819ZM37.5983 28.4969H39.3683L38.7046 27.6119H38.262L37.5983 28.4969Z" fill="white"/>
<path d="M25.2075 36.0197H23.8799C22.9024 36.0197 22.1099 35.2272 22.1099 34.2496C22.1099 33.272 22.9024 32.4795 23.8799 32.4795H25.2075C25.4519 32.4795 25.65 32.6776 25.65 32.922V35.5771C25.65 35.8215 25.4519 36.0197 25.2075 36.0197ZM23.8799 33.3645C23.3911 33.3645 22.9949 33.7608 22.9949 34.2496C22.9949 34.7384 23.3912 35.1346 23.8799 35.1346H24.765V33.3645L23.8799 33.3645Z" fill="white"/>
<path d="M27.8628 37.3474C27.7935 37.347 27.7253 37.3303 27.6636 37.2987L25.0085 35.9711C24.8597 35.8962 24.7656 35.7439 24.7651 35.5773V32.9222C24.7656 32.7555 24.8597 32.6033 25.0085 32.5283L27.6636 31.2008C27.8819 31.0908 28.148 31.1785 28.258 31.3968C28.2889 31.4582 28.3051 31.5259 28.3053 31.5946V36.9048C28.3056 37.0577 28.227 37.2 28.0973 37.281C28.0269 37.3246 27.9456 37.3476 27.8628 37.3474ZM25.6502 35.3029L27.4203 36.188V32.3115L25.6502 33.1965V35.3029Z" fill="white"/>
<path d="M30.518 34.6922H29.633C29.3886 34.6922 29.1904 34.4941 29.1904 34.2497C29.1904 34.0052 29.3885 33.8071 29.633 33.8071H30.518C30.7624 33.8071 30.9605 34.0052 30.9605 34.2497C30.9605 34.4941 30.7624 34.6922 30.518 34.6922Z" fill="white"/>
<path d="M29.6329 32.9221C29.4663 32.9216 29.3141 32.8276 29.2391 32.6788C29.1298 32.4612 29.2168 32.1962 29.4338 32.0858L30.3188 31.6432C30.5282 31.5172 30.8001 31.5849 30.9261 31.7943C31.0521 32.0037 30.9845 32.2756 30.7751 32.4016C30.7565 32.4128 30.7371 32.4226 30.7171 32.4309L29.832 32.8735C29.7708 32.9062 29.7023 32.923 29.6329 32.9221Z" fill="white"/>
<path d="M30.5178 36.9047C30.4484 36.9056 30.3799 36.8888 30.3187 36.8561L29.4337 36.4135C29.2243 36.2875 29.1566 36.0156 29.2827 35.8062C29.3958 35.6183 29.6295 35.5415 29.8319 35.6259L30.717 36.0684C30.9339 36.1788 31.021 36.4438 30.9117 36.6614C30.8367 36.8102 30.6845 36.9042 30.5178 36.9047Z" fill="white"/>
<path d="M23.88 37.7899C23.6356 37.7899 23.4375 37.5918 23.4375 37.3474V35.5773C23.4375 35.3329 23.6356 35.1348 23.88 35.1348C24.1244 35.1348 24.3225 35.3329 24.3225 35.5773V37.3474C24.3225 37.5918 24.1244 37.7899 23.88 37.7899Z" fill="white"/>
<path d="M43.3509 43.5425H19.4547C19.2103 43.5425 19.0122 43.3444 19.0122 43.1C19.0122 42.8556 19.2103 42.6575 19.4547 42.6575H43.3509C43.5953 42.6575 43.7934 42.8556 43.7934 43.1C43.7934 43.3444 43.5953 43.5425 43.3509 43.5425Z" fill="white"/>
<path d="M32.7305 48.8527C32.4861 48.8527 32.2879 48.6546 32.2879 48.4102V41.3299H30.5179V48.4102C30.5179 48.6546 30.3197 48.8527 30.0753 48.8527C29.8309 48.8527 29.6328 48.6546 29.6328 48.4102V40.8873C29.6328 40.643 29.8309 40.4448 30.0753 40.4448H32.7305C32.9749 40.4448 33.173 40.6429 33.173 40.8873V48.4102C33.173 48.6546 32.9749 48.8527 32.7305 48.8527Z" fill="white"/>
<path d="M30.0753 43.5425H26.9777C26.7333 43.5425 26.5352 43.3444 26.5352 43.1V40.8873C26.5352 40.643 26.7333 40.4448 26.9777 40.4448H30.0753C30.3197 40.4448 30.5178 40.6429 30.5178 40.8873V43.1C30.5178 43.3444 30.3197 43.5425 30.0753 43.5425ZM27.4202 42.6574H29.6328V41.3299H27.4202V42.6574Z" fill="white"/>
<path d="M26.9777 43.5425H23.88C23.6356 43.5425 23.4375 43.3444 23.4375 43.1V40.8873C23.4375 40.643 23.6356 40.4448 23.88 40.4448H26.9777C27.2221 40.4448 27.4202 40.6429 27.4202 40.8873V43.1C27.4202 43.3444 27.2221 43.5425 26.9777 43.5425ZM24.3225 42.6574H26.5352V41.3299H24.3225V42.6574Z" fill="white"/>
<path d="M23.88 43.5425H20.7824C20.538 43.5425 20.3398 43.3444 20.3398 43.1V40.8873C20.3398 40.643 20.538 40.4448 20.7824 40.4448H23.88C24.1244 40.4448 24.3225 40.6429 24.3225 40.8873V43.1C24.3225 43.3444 24.1244 43.5425 23.88 43.5425ZM21.2249 42.6574H23.4375V41.3299H21.2249V42.6574Z" fill="white"/>
<path d="M42.0231 43.5425H38.9254C38.681 43.5425 38.4829 43.3444 38.4829 43.1V40.8873C38.4829 40.643 38.681 40.4448 38.9254 40.4448H42.0231C42.2675 40.4448 42.4656 40.6429 42.4656 40.8873V43.1C42.4656 43.3444 42.2675 43.5425 42.0231 43.5425ZM39.368 42.6574H41.5806V41.3299H39.368V42.6574Z" fill="white"/>
<path d="M38.9254 43.5425H35.8278C35.5834 43.5425 35.3853 43.3444 35.3853 43.1V40.8873C35.3853 40.643 35.5834 40.4448 35.8278 40.4448H38.9254C39.1698 40.4448 39.3679 40.6429 39.3679 40.8873V43.1C39.3679 43.3444 39.1698 43.5425 38.9254 43.5425ZM36.2703 42.6574H38.4829V41.3299H36.2703V42.6574Z" fill="white"/>
<path d="M35.8283 43.5425H32.7306C32.4862 43.5425 32.2881 43.3444 32.2881 43.1V40.8873C32.2881 40.643 32.4862 40.4448 32.7306 40.4448H35.8283C36.0726 40.4448 36.2708 40.6429 36.2708 40.8873V43.1C36.2708 43.3444 36.0727 43.5425 35.8283 43.5425ZM33.1731 42.6574H35.3857V41.3299H33.1731V42.6574Z" fill="white"/>
<path d="M39.8107 32.4795H33.6154C33.371 32.4795 33.1729 32.2814 33.1729 32.037C33.1729 31.7926 33.371 31.5945 33.6154 31.5945H39.8107C40.0551 31.5945 40.2532 31.7926 40.2532 32.037C40.2532 32.2814 40.0551 32.4795 39.8107 32.4795Z" fill="white"/>
<path d="M39.8107 34.6922H33.6154C33.371 34.6922 33.1729 34.4941 33.1729 34.2497C33.1729 34.0052 33.371 33.8071 33.6154 33.8071H39.8107C40.0551 33.8071 40.2532 34.0052 40.2532 34.2497C40.2532 34.4941 40.0551 34.6922 39.8107 34.6922Z" fill="white"/>
<path d="M37.1555 36.9048H33.6154C33.371 36.9048 33.1729 36.7067 33.1729 36.4623C33.1729 36.2179 33.371 36.0198 33.6154 36.0198H37.1555C37.3999 36.0198 37.5981 36.2179 37.5981 36.4623C37.5981 36.7067 37.4 36.9048 37.1555 36.9048Z" fill="white"/>
<path d="M45.2698 19.0425C44.5279 18.3006 44.5279 17.0702 45.2698 16.3283L56.1264 5.47165C56.6693 4.92882 57.5016 4.74787 58.2073 5.05548C58.913 5.36309 59.3835 6.05068 59.4015 6.82874V14.0665C59.4015 15.116 58.533 15.9845 57.4835 15.9845C56.4341 15.9845 55.5655 15.116 55.5655 14.0665V11.4609L47.9839 19.0425C47.2421 19.7844 46.0117 19.7844 45.2698 19.0425Z" fill="white"/>
<path d="M48.8886 8.18574C48.5448 7.84195 48.3276 7.37149 48.3276 6.82865C48.3276 5.77918 49.1962 4.91064 50.2456 4.91064H57.4834C58.5329 4.91064 59.4014 5.77918 59.4014 6.82865C59.4014 7.87813 58.5329 8.74666 57.4834 8.74666H50.2456C49.7028 8.74666 49.2324 8.52953 48.8886 8.18574Z" fill="white"/>
</svg>
