<svg width="94" height="67" viewBox="0 0 94 67" fill="none" xmlns="http://www.w3.org/2000/svg">
<path d="M12.7912 30.0816C10.8515 30.0816 9.02195 30.0816 7.08628 30.0816C7.0762 30.3846 7.04194 30.6829 7.06008 30.9772C7.19244 33.144 7.32614 35.3101 7.47731 37.4756C7.66611 40.1752 7.8623 42.8747 8.07327 45.5723C8.26408 48.0153 8.34134 50.4716 8.91244 52.8716C9.33236 54.6366 9.93503 56.327 10.8884 57.8804C10.9744 58.0202 11.0423 58.1713 11.1209 58.3218C10.5693 58.4938 9.0878 58.5187 8.19555 58.4334C4.71994 58.1021 1.78048 54.9759 1.59505 51.6756C1.43716 48.8618 1.17109 46.0547 0.963485 43.2436C0.751844 40.376 0.552298 37.5071 0.34872 34.6382C0.232485 33.0076 0.091391 31.3776 0.00807849 29.745C-0.171312 26.2203 2.6593 23.2332 6.2713 23.1485C8.04706 23.1068 9.82485 23.1384 11.6013 23.1384C16.3676 23.1377 21.1338 23.1438 25.9001 23.1364C28.4546 23.1324 30.4669 24.2007 32.0223 26.184C32.8628 27.2557 33.3311 28.4892 33.4365 29.839C33.6455 32.5091 33.8047 35.1831 34.007 37.8538C34.2824 41.4833 31.5835 44.07 29.0835 44.5208C28.5319 44.6203 27.9641 44.6619 27.4031 44.6666C25.2316 44.6828 23.0581 44.6169 20.8886 44.6854C16.895 44.8111 13.3992 41.4195 13.2931 37.3983C13.2306 34.9822 12.9692 32.5709 12.7912 30.0816ZM20.2806 37.6086C20.3813 37.663 20.4284 37.7114 20.4761 37.7114C22.2774 37.7208 24.0793 37.751 25.88 37.7194C26.6694 37.7053 27.0322 37.2122 26.9825 36.3361C26.8911 34.7343 26.785 33.1332 26.664 31.5328C26.5881 30.5311 26.0835 30.0628 25.0804 30.0607C21.7016 30.0527 18.322 30.0574 14.9432 30.0594C14.8357 30.0594 14.7289 30.0796 14.4662 30.1051C18.1366 31.3991 20.1395 33.832 20.2806 37.6086Z" fill="#AFBBDB"/>
<path d="M33.7891 44.3821C34.0323 43.9877 34.1754 43.6457 34.4132 43.3925C34.9904 42.7784 35.5715 42.1555 36.2233 41.6254C38.0474 40.1412 39.7835 38.5852 40.9513 36.5084C41.5264 36.7946 42.0464 37.1339 42.6162 37.3127C43.1154 37.4692 43.6717 37.4974 44.2018 37.4941C48.6563 37.4672 53.1108 37.4195 57.5647 37.3778C57.988 37.3738 58.4126 37.396 58.8332 37.361C59.4762 37.308 59.878 36.9062 59.8833 36.2618C59.8894 35.5342 59.8249 34.8066 59.7866 33.9775C54.4398 33.9775 49.1629 33.9775 43.7053 33.9775C44.7305 32.7318 44.7574 31.4438 44.6472 30.0981C44.3724 26.7273 44.144 23.3524 43.9015 19.9783C43.6784 16.8816 45.4857 14.1289 48.3479 13.271C48.96 13.0875 49.6191 12.9874 50.2581 12.98C52.9933 12.9491 55.7291 12.9478 58.465 12.9713C62.2584 13.0035 65.5049 16.0572 65.775 19.8278C66.1257 24.7204 66.4691 29.613 66.8077 34.5062C66.893 35.7432 67.0234 36.9841 66.9998 38.2204C66.9508 40.8387 65.6218 42.6803 63.3207 43.8446C62.5043 44.2578 61.6114 44.4291 60.701 44.4298C51.8739 44.4365 43.0462 44.4339 34.2191 44.4325C34.1358 44.4332 34.0524 44.4144 33.7891 44.3821ZM59.6314 32.1708C59.5971 31.6655 59.5642 31.1603 59.5286 30.6557C59.3116 27.5906 59.0999 24.5249 58.8715 21.4604C58.7976 20.4708 58.3421 20.0253 57.3665 20.0125C55.7029 19.9904 54.0387 19.991 52.3745 20.0119C51.3922 20.0246 51.0072 20.4634 51.0623 21.4524C51.1248 22.5784 51.2034 23.7038 51.2847 24.8285C51.3331 25.4971 51.3982 26.1642 51.4621 26.9006C55.4288 26.7642 58.0901 28.6058 59.6314 32.1708Z" fill="#AFBBDB"/>
<path d="M77.9993 44.4398C77.9993 44.9693 77.9751 45.414 78.0034 45.8555C78.129 47.7958 78.3057 49.7342 78.3984 51.6766C78.5476 54.8142 76.4359 57.5696 73.4051 58.2341C72.9132 58.3416 72.3993 58.3886 71.8947 58.392C69.611 58.4088 67.3266 58.4021 65.0422 58.3987C64.8884 58.3987 64.7338 58.3611 64.5518 58.2119C64.7721 58.1246 64.9965 58.0466 65.2115 57.9479C66.3101 57.4413 67.4294 56.9737 68.497 56.4093C70.3353 55.4371 71.2477 53.8669 71.1993 51.7881C71.1502 49.6757 71.0696 47.5627 70.9547 45.453C70.8459 43.4549 70.6732 41.4607 70.5321 39.4646C70.3279 36.5688 70.1263 33.6724 69.9241 30.7766C69.6822 27.3178 69.441 23.8596 69.2018 20.4008C69.1944 20.2933 69.2159 20.1831 69.2273 20.0306C69.7776 19.9238 70.2681 20.0897 70.6591 20.384C71.3518 20.9054 72.0223 21.4698 72.6297 22.0879C73.2398 22.7094 73.747 23.431 74.3248 24.086C75.3542 25.2538 76.5299 26.2549 77.9375 27.0705C76.9774 28.0293 76.8551 29.1829 76.9364 30.3929C77.0594 32.2211 77.1964 34.0479 77.3006 35.8768C77.3523 36.7858 78.0954 37.3979 78.8983 37.3784C80.9556 37.3287 83.0149 37.3704 85.0735 37.3576C85.9758 37.3522 86.428 36.8772 86.3689 35.9742C86.2056 33.4708 86.0175 30.9694 85.8388 28.4667C85.6997 26.527 85.5593 24.5873 85.4195 22.6469C85.3591 21.8091 85.3006 20.9706 85.2401 20.1092C85.8079 19.9365 86.2338 20.1596 86.6504 20.3719C87.5756 20.8436 88.2582 21.5954 88.9146 22.3754C89.477 23.044 90.0266 23.7246 90.6145 24.3702C91.5672 25.4164 92.6368 26.3294 93.9295 27.0537C93.8435 27.2015 93.7911 27.3204 93.7131 27.4199C93.2247 28.0447 92.9821 28.7589 93.0137 29.5437C93.0809 31.2052 93.1689 32.8654 93.2663 34.5256C93.3255 35.5381 93.4263 36.5486 93.4955 37.5612C93.7481 41.2578 90.8893 44.3713 87.1429 44.4264C84.4083 44.4667 81.6725 44.4365 78.9373 44.4378C78.6329 44.4405 78.3299 44.4398 77.9993 44.4398Z" fill="#AFBBDB"/>
<path d="M12.521 55.1549C12.8455 54.6631 13.0229 54.3117 13.2769 54.0275C13.7075 53.5457 14.1503 53.062 14.6508 52.6568C16.608 51.0732 18.5161 49.4507 19.794 47.1367C20.8187 48.166 22.0515 48.2534 23.3489 48.2157C25.5473 48.1512 27.747 48.1298 29.9467 48.1277C36.3202 48.121 42.6942 48.1271 49.0676 48.1412C50.8441 48.1452 52.6198 48.1869 54.3956 48.2272C55.558 48.2534 56.6491 48.0868 57.5312 47.2066C57.6058 47.2583 57.6912 47.2872 57.7254 47.3457C58.8475 49.2854 60.4425 50.789 62.1719 52.167C63.0567 52.8725 63.9181 53.5995 64.5322 54.5683C64.6189 54.7054 64.6807 54.8586 64.8258 55.1495C47.3819 55.1818 30.059 55.1723 12.521 55.1549Z" fill="#AFBBDB"/>
<path d="M78.9737 11.2207C79.9822 10.1343 80.9389 9.10364 81.895 8.07365C81.9911 7.97018 82.0852 7.86605 82.1812 7.76258C83.0345 6.84681 83.2838 6.83001 84.1841 7.65575C85.2423 8.62728 86.2945 9.60553 87.3473 10.5824C87.5126 10.7356 87.6826 10.8861 87.829 11.0561C88.2241 11.5157 88.2637 11.8872 87.8619 12.3347C86.7708 13.5501 85.6622 14.7507 84.5308 15.9292C84.0611 16.4183 83.613 16.3908 83.0506 15.8829C82.2357 15.1465 81.4462 14.3819 80.646 13.6294C80.1166 13.1322 79.5865 12.635 79.0288 12.1116C77.9726 13.2471 76.9379 14.3584 75.9032 15.4703C75.7689 15.6148 75.6412 15.766 75.4974 15.9003C75.0016 16.3653 74.6018 16.3989 74.0825 15.9621C73.5873 15.5456 73.1277 15.0874 72.6547 14.6439C71.874 13.9116 71.0852 13.1873 70.3206 12.4388C69.7086 11.8395 69.6911 11.474 70.2615 10.8478C71.2861 9.72378 72.3255 8.6125 73.3777 7.51465C73.9682 6.89787 74.3035 6.8925 74.9572 7.4898C76.2876 8.70455 77.5977 9.93945 78.9737 11.2207Z" fill="#AFBBDB"/>
<path d="M38.7946 62.2607C37.7136 63.4257 36.646 64.58 35.5743 65.7303C35.4023 65.915 35.2263 66.1011 35.0281 66.2563C34.7318 66.4888 34.4033 66.5049 34.0868 66.2886C33.902 66.1623 33.724 66.0205 33.5607 65.8673C32.4488 64.8279 31.3375 63.7879 30.2349 62.7391C29.4294 61.9731 29.4213 61.6493 30.1725 60.8424C31.1131 59.8312 32.0571 58.8234 33.0058 57.8196C33.7361 57.0476 34.0673 57.0322 34.8359 57.7423C36.0359 58.8523 37.2271 59.9716 38.4238 61.0856C38.5239 61.1783 38.6314 61.2636 38.7503 61.3651C39.8649 60.1611 40.9507 58.9819 42.0452 57.8109C42.7567 57.049 43.1034 57.0355 43.8794 57.7457C45.0229 58.7918 46.1631 59.8426 47.2918 60.9048C48.0927 61.6594 48.0941 61.9993 47.3489 62.8069C46.45 63.7798 45.549 64.7507 44.6487 65.7222C43.7833 66.6561 43.483 66.6722 42.5726 65.8176C41.3175 64.6411 40.0692 63.4613 38.7946 62.2607Z" fill="#AFBBDB"/>
<path d="M53.7575 4.1706C54.8936 2.94577 55.9787 1.76461 57.0772 0.596219C57.8048 -0.177781 58.1394 -0.193233 58.9121 0.52097C60.0711 1.59261 61.22 2.67567 62.3615 3.76545C63.0878 4.45816 63.0985 4.80821 62.4193 5.54525C61.4256 6.62294 60.4245 7.69391 59.4113 8.75278C58.8079 9.38435 58.4942 9.39845 57.8377 8.80116C56.488 7.57364 55.157 6.32463 53.8146 5.08031C52.7765 6.19227 51.7398 7.30355 50.7011 8.41349C50.5277 8.59893 50.3618 8.79444 50.1683 8.95636C49.7551 9.30372 49.4595 9.32253 49.0241 9.00675C48.752 8.80922 48.5128 8.56466 48.2649 8.33488C47.2524 7.39492 46.2358 6.45967 45.234 5.50897C44.4621 4.77663 44.458 4.47159 45.183 3.67408C46.1303 2.63066 47.0804 1.58925 48.0411 0.558595C48.717 -0.166359 49.0839 -0.182484 49.8182 0.493423C51.1237 1.69742 52.4144 2.91553 53.7575 4.1706Z" fill="#AFBBDB"/>
</svg>
