<svg width="90" height="74" viewBox="0 0 90 74" fill="none" xmlns="http://www.w3.org/2000/svg">
<path d="M68.8076 11.13C68.8732 11.0517 68.9599 10.9831 69.0013 10.8936C69.5652 9.67325 70.3553 8.61035 71.2332 7.60072C71.9444 6.78286 72.6208 5.93461 73.3052 5.09387C73.4607 4.90286 73.5945 4.69241 73.7232 4.48172C73.9826 4.05724 73.8923 3.70107 73.4066 3.58532C72.9373 3.4735 72.4282 3.44253 71.9464 3.48572C70.4679 3.61824 69.0712 4.10021 67.7044 4.64345C61.4752 7.11932 55.403 9.92601 49.6276 13.345C48.7162 13.8845 47.8313 14.4699 46.9456 15.0515C46.6737 15.2301 46.4398 15.4667 46.1333 15.723C46.3511 15.876 46.5133 16.0019 46.6866 16.1101C51.314 19.002 55.8133 22.08 60.1683 25.3687C62.9629 27.4792 65.6553 29.7132 68.286 32.0239C69.1164 32.7533 69.9448 33.4898 70.951 33.9902C72.8686 34.9438 74.7767 34.7406 76.6973 34.0044C78.4177 33.3449 79.5667 32.1322 80.262 30.4454C80.5215 29.8156 80.7685 29.1623 81.1456 28.6036C81.7501 27.7079 82.417 26.8451 83.138 26.0405C83.5694 25.5589 84.1098 25.133 84.6785 24.8245C86.1639 24.0187 87.4877 24.4286 88.3558 25.8748C89.2331 27.3363 89.4593 28.9361 89.3432 30.6021C89.269 31.6679 89.0267 32.6952 88.5278 33.6499C88.0932 34.4818 87.8336 34.606 86.8927 34.5383C85.1947 34.416 83.6696 33.8021 82.2309 32.9358C81.7471 32.6445 81.2761 32.3319 80.7623 32.0056C80.6852 32.1718 80.6094 32.3359 80.5332 32.4998C79.6826 34.3305 78.5704 35.9641 76.9217 37.1731C74.9465 38.6215 72.8496 38.6458 70.6814 37.6499C69.54 37.1256 68.608 36.3181 67.6998 35.4712C66.4499 34.3057 65.1824 33.1591 63.9209 32.006C63.8279 31.921 63.7231 31.849 63.5499 31.8073C63.5793 31.92 63.6022 32.0349 63.6393 32.1451C63.8714 32.836 64.1662 33.5121 64.3287 34.2188C64.6763 35.7302 64.272 37.1343 63.5614 38.4659C62.6837 40.1106 61.2746 41.2333 59.7649 42.2381C57.5732 43.6968 55.1191 44.4303 52.5274 44.7437C51.3561 44.8853 50.1779 44.9766 49.0087 44.7416C47.7635 44.4913 46.8263 43.8214 46.2136 42.679C45.5941 41.5242 45.2916 40.295 45.1799 39.0035C45.114 38.2408 45.0371 37.479 44.9538 36.718C44.9292 36.493 44.9889 36.3439 45.1864 36.2179C45.6509 35.9215 46.1019 35.604 46.6172 35.2551C46.6559 35.8766 46.6421 36.4449 46.7375 36.9942C46.8675 37.7422 47.0187 38.4977 47.2722 39.2105C47.731 40.5008 48.6969 41.1752 50.0736 41.1787C53.734 41.1879 57.2519 40.6145 60.3951 38.5689C61.4284 37.8965 62.3495 37.0945 63.1797 36.1842C63.4664 35.8698 63.5183 35.5324 63.3684 35.142C62.8575 33.8106 62.0247 32.6915 61.0778 31.6468C59.1786 29.5515 57.0028 27.7623 54.8112 25.9909C52.0252 23.739 49.2379 21.4887 46.4506 19.2386C46.3535 19.1602 46.2498 19.0902 46.112 18.989C46.112 19.4341 46.1016 19.8294 46.1137 20.2241C46.2145 23.5343 46.322 26.8444 46.4154 30.1549C46.4198 30.3107 46.3581 30.5337 46.2465 30.6162C45.775 30.9649 45.273 31.2721 44.7362 31.6247C44.7177 31.4845 44.6965 31.3868 44.6932 31.2885C44.5921 28.2848 44.5106 25.2804 44.3887 22.2776C44.2405 18.6276 44.0959 14.9767 43.8774 11.3306C43.7398 9.03463 43.2807 6.77713 42.633 4.57184C42.3523 3.61616 42.4532 2.7394 42.778 1.85161C42.9493 1.38333 43.1665 0.931855 43.363 0.472792C43.418 0.470643 43.4731 0.468493 43.5281 0.466344C43.792 1.08856 44.0946 1.69758 44.312 2.33565C44.815 3.81263 45.0836 5.34598 45.2355 6.89347C45.4577 9.15532 45.6306 11.422 45.8253 13.6866C45.8278 13.7154 45.8404 13.7434 45.8538 13.7917C45.8938 13.7542 45.9317 13.7361 45.9379 13.7103C46.1806 12.7005 46.9429 12.1335 47.7247 11.566C50.5308 9.52868 53.6169 7.9895 56.7295 6.50168C60.6784 4.61412 64.6603 2.79991 68.8005 1.36026C70.2236 0.865382 71.6534 0.374974 73.1646 0.239845C73.6465 0.196755 74.146 0.285355 74.6307 0.358269C75.0476 0.420981 75.2635 0.724397 75.3707 1.12089C75.5352 1.72976 75.4993 2.32676 75.334 2.93122C74.8832 4.57967 73.9983 5.9833 72.9156 7.27799C71.9634 8.41661 71.0088 9.55318 70.0425 10.7346C69.9713 10.8336 69.8989 10.8797 69.8564 10.9451C69.4288 11.6041 69.0064 12.2664 68.5816 12.9271C68.513 13.0339 68.4394 13.1375 68.3681 13.2425C68.3266 13.2234 68.2852 13.2042 68.2437 13.1851C68.4082 12.6405 68.576 12.0969 68.7347 11.5507C68.7742 11.4148 68.7841 11.2704 68.8076 11.13ZM84.779 30.1409C84.9947 30.2334 85.2072 30.3344 85.4268 30.4165C85.8 30.556 86.1702 30.7143 86.5554 30.8078C86.9776 30.9103 87.0691 30.8111 87.0476 30.4009C86.9586 28.7014 84.805 27.5056 83.3318 28.3408C83.2215 28.4033 83.1163 28.4878 83.0335 28.5835C82.7887 28.8664 82.8051 29.0517 83.126 29.2386C83.6528 29.5454 84.1958 29.8246 84.779 30.1409Z" fill="white"/>
<path d="M28.673 34.5359C27.7533 35.2507 26.8627 36.0072 25.9086 36.6728C22.8046 38.8383 19.573 40.7995 16.1227 42.3624C15.1718 42.7932 14.1013 42.9738 13.0735 43.218C10.1323 43.9168 7.1887 44.6068 4.23775 45.2628C3.17165 45.4998 2.0821 45.6317 1.00266 45.8078C0.911736 45.8227 0.816294 45.8098 0.606934 45.8098C0.789296 45.6807 0.884883 45.5883 0.998907 45.5361C2.50683 44.8466 4.00893 44.1434 5.52881 43.4811C9.91737 41.5686 14.3536 39.7623 18.6305 37.6019C21.9782 35.9109 25.2101 34.0283 28.1905 31.7376C29.8481 30.4636 31.2516 28.9916 32.0414 27.0005C32.3875 26.1278 32.8426 25.298 33.2563 24.4527C33.3592 24.2422 33.4843 24.041 33.6149 23.8461C33.7986 23.572 34.0624 23.4523 34.3793 23.5673C34.6023 23.6482 34.7121 23.5558 34.8566 23.4065C35.4296 22.8146 35.9975 22.2145 36.6108 21.6662C37.1289 21.203 37.7738 20.9519 38.4634 20.8557C39.5671 20.7017 40.6034 21.2723 41.1918 22.4709C42.3401 24.8101 42.436 27.1744 41.1591 29.5108C40.4308 30.8433 39.7246 31.1046 38.3057 30.5603C37.1401 30.1132 36.1121 29.4283 35.1666 28.6187C34.5326 28.0758 33.9045 27.5262 33.2449 26.9545C33.0982 27.3136 32.9798 27.6444 32.8311 27.961C31.7961 30.1647 30.7358 32.3567 29.7218 34.57C28.9366 36.2838 28.3016 38.0556 27.9511 39.9155C27.8057 40.6876 27.8226 41.4707 28.0237 42.2293C28.4465 43.8244 29.6536 44.5649 31.2732 44.1928C32.8775 43.8243 34.1587 42.8713 35.2732 41.7146C37.2193 39.6948 39.0939 37.6057 41.048 35.5938C42.8599 33.7284 44.8381 32.0563 47.1647 30.8452C48.4543 30.1739 49.8163 29.7472 51.2796 29.7065C52.7136 29.6666 53.9216 30.1172 54.7246 31.3788C55.0093 31.8261 55.1293 32.3178 55.1067 32.8572C55.0703 33.7222 54.9912 34.5728 54.5943 35.3613C54.5574 35.4347 54.5157 35.5056 54.4774 35.5783C54.4554 35.6202 54.4356 35.6632 54.3967 35.7429C54.1652 35.4252 53.9795 35.1723 53.7958 34.9179C52.8813 33.6522 51.6162 33.2889 50.1251 33.464C48.1939 33.6908 46.6016 34.6489 45.0727 35.7563C43.2869 37.0498 41.7518 38.6091 40.2724 40.2326C38.7485 41.905 37.2221 43.5762 35.6525 45.2052C34.8094 46.0801 33.7589 46.6553 32.588 47.0296C31.5246 47.3695 30.5593 47.1747 29.6468 46.6274C28.0409 45.6642 27.271 44.1444 27.0104 42.3616C26.7391 40.5056 27.2558 38.7376 27.8091 36.994C28.0647 36.1885 28.4031 35.4093 28.7204 34.5862C28.7331 34.5356 28.7293 34.5169 28.7256 34.4983C28.708 34.5108 28.6905 34.5234 28.673 34.5359ZM39.0035 26.8373C39.0995 26.8818 39.1949 26.9278 39.2918 26.9704C39.7311 27.1634 39.9088 27.0463 39.8971 26.5621C39.8835 25.9993 39.6629 25.5083 39.3322 25.0673C38.9975 24.621 38.6453 24.1711 38.0168 24.1645C37.3013 24.157 36.7196 24.4927 36.1353 24.9418C37.0303 25.6936 37.961 26.3007 39.0035 26.8373Z" fill="white"/>
<path d="M68.7811 11.1362C68.7847 11.2704 68.7748 11.4148 68.7353 11.5506C68.5766 12.0969 68.4088 12.6405 68.2443 13.1851C68.2858 13.2042 68.3272 13.2233 68.3687 13.2425C68.44 13.1374 68.5136 13.0338 68.5822 12.9271C69.007 12.2664 69.4294 11.604 69.857 10.9451C69.8995 10.8796 69.9719 10.8336 70.0426 10.7609C71.7727 10.3666 73.473 10.4278 75.1359 11.007C78.0129 12.0093 80.0364 13.9376 81.0283 16.8133C82.2185 20.2638 81.5768 23.4435 79.2005 26.2093C77.6285 28.0389 75.5894 29.0925 73.1752 29.3279C69.6632 29.6703 66.7901 28.4234 64.6268 25.659C63.0894 23.6945 62.4718 21.4132 62.7676 18.9282C63.1673 15.5711 64.9224 13.1238 67.8846 11.5274C68.1628 11.3775 68.4637 11.2698 68.7811 11.1362ZM68.7811 18.17C68.4204 18.4633 68.3562 18.8384 68.4653 19.2888C68.9604 19.2888 69.4422 19.2779 69.9233 19.2919C70.4069 19.306 70.6405 19.4947 70.6826 19.9103C70.7087 20.1665 70.6953 20.4282 70.683 20.6866C70.6694 20.9714 70.4938 21.1133 70.221 21.1155C69.3843 21.1223 68.5473 21.1313 67.7109 21.1143C67.2913 21.1058 67.1269 20.9072 67.1222 20.4835C67.1175 20.0593 67.1211 19.635 67.1211 19.2107C67.1211 18.9806 67.1211 18.7504 67.1211 18.5305C66.7782 18.5305 66.4913 18.5305 66.2122 18.5305C66.1991 18.5806 66.1882 18.6029 66.1882 18.6253C66.1864 19.4974 66.1866 20.3695 66.1842 21.2415C66.1834 21.5479 66.1949 21.8558 66.1686 22.1602C66.1296 22.6106 65.9609 22.764 65.5257 22.8006C65.447 22.8072 65.3685 22.8163 65.2784 22.8254C65.2784 23.0891 65.2784 23.3338 65.2784 23.608C65.7189 23.6362 66.1567 23.6678 66.5421 23.4118C67.1339 23.0189 67.0889 22.373 67.1335 21.7707C67.3218 21.8275 67.486 21.9186 67.651 21.9202C68.6864 21.93 69.7227 21.9432 70.7569 21.906C71.2315 21.8889 71.4915 21.6327 71.5541 21.1537C71.6177 20.6673 71.6458 20.1644 71.5974 19.6779C71.526 18.9614 71.1571 18.6317 70.433 18.5222C70.2037 18.4875 69.9703 18.4802 69.6755 18.455C70.1585 17.8875 70.6037 17.3643 71.0712 16.8149C70.8452 16.6257 70.6416 16.4551 70.4091 16.2604C69.8638 16.8989 69.3382 17.5144 68.7811 18.17ZM73.9347 20.0216C73.9347 19.5207 73.9347 19.0198 73.9347 18.5313C73.5855 18.5313 73.2986 18.5313 72.9862 18.5313C72.9862 18.688 72.9864 18.8159 72.9862 18.9439C72.984 19.9455 72.9902 20.9472 72.9766 21.9486C72.9673 22.6389 72.8427 22.7552 72.1526 22.8097C72.1323 22.8113 72.1136 22.8328 72.0788 22.8545C72.0788 23.089 72.0788 23.3328 72.0788 23.6079C72.5221 23.6375 72.9559 23.6642 73.3447 23.4131C73.9496 23.0225 73.869 22.3604 73.9554 21.7839C74.6855 22.0145 75.3834 22.1173 76.0199 21.5653C76.56 22.0487 77.2016 22.0731 77.8536 21.947C78.6244 21.798 79.0229 21.1563 79.0106 20.164C78.9933 18.7738 78.0801 18.0779 76.7268 18.4234C76.1258 18.5769 75.7803 18.9793 75.6676 19.5703C75.6086 19.8795 75.6182 20.2017 75.5943 20.5178C75.5626 20.9348 75.3755 21.116 74.974 21.1227C74.0063 21.1391 73.9348 21.0681 73.9347 20.0216ZM67.1464 17.5218C67.1464 17.2895 67.1464 17.0573 67.1464 16.8183C66.8039 16.8183 66.5049 16.8183 66.2017 16.8183C66.2017 17.1065 66.2017 17.371 66.2017 17.6994C66.53 17.6594 66.8326 17.6225 67.1464 17.5218Z" fill="white"/>
<path d="M41.0217 66.941C41.3109 66.9406 41.5666 66.9406 41.8556 66.9406C41.8556 67.6952 41.8547 68.4108 41.8559 69.1263C41.8568 69.6494 42.0439 69.8419 42.5774 69.8632C42.7774 69.8711 42.978 69.868 43.1782 69.8656C43.5837 69.8605 43.6742 69.7788 43.6792 69.3654C43.6877 68.6703 43.6828 67.9751 43.6834 67.28C43.6835 67.1653 43.6834 67.0506 43.6834 66.9439C44.4448 66.7859 44.6965 66.8558 44.7629 67.1933C45.3168 67.059 45.866 66.8841 46.4287 66.8041C46.8039 66.7506 47.2081 66.7851 47.5823 66.8627C48.5122 67.0554 49.0156 67.7316 49.0587 68.7939C49.0701 69.0744 49.0482 69.3594 49.0105 69.6381C48.9123 70.3637 48.5546 70.7474 47.835 70.7555C46.6844 70.7685 45.5332 70.7059 44.382 70.686C44.2261 70.6833 44.0696 70.7652 43.9125 70.7688C43.43 70.7799 42.9438 70.8056 42.4658 70.7579C42.2089 70.7323 41.9659 70.568 41.6705 70.4476C41.4708 70.7511 41.0631 70.7869 40.6446 70.7888C40.1385 70.7911 39.6324 70.7894 39.1017 70.7894C39.0837 70.9627 39.0711 71.1242 39.0496 71.2845C38.9336 72.1469 38.5891 72.5063 37.7374 72.6437C37.5757 72.6698 37.4094 72.6737 37.2451 72.6755C36.8476 72.6798 36.45 72.6769 36.0272 72.6769C36.0272 72.3552 36.0272 72.0688 36.0272 71.746C36.4459 71.746 36.8445 71.7578 37.2421 71.7433C37.8323 71.7218 38.0647 71.4294 37.9945 70.7775C37.6027 70.7775 37.2047 70.7955 36.8088 70.7738C35.9297 70.7256 35.4458 70.2967 35.3102 69.4243C35.2091 68.7741 35.239 68.133 35.6127 67.5519C36.037 66.8924 36.8552 66.6167 37.7739 66.8294C38.4817 66.9933 38.9346 67.5246 39.0243 68.3122C39.0536 68.5689 39.0643 68.8281 39.0727 69.0865C39.0806 69.3317 39.0744 69.5773 39.0744 69.8587C39.552 69.8587 40.0074 69.8703 40.4619 69.8544C40.7424 69.8445 40.7884 69.6187 40.7907 69.3962C40.7983 68.6776 40.7901 67.9587 40.8081 67.2404C40.8106 67.1393 40.9254 67.041 41.0217 66.941ZM44.7374 68.8996C44.7374 69.212 44.7374 69.5245 44.7374 69.8653C45.4574 69.8653 46.1725 69.8677 46.8876 69.8647C47.9054 69.8606 48.0374 69.7102 47.9433 68.6756C47.8907 68.0961 47.5877 67.7398 47.0032 67.7413C46.4609 67.7428 45.9054 67.8161 45.3804 67.9527C44.7264 68.1229 44.7374 68.165 44.7374 68.8996ZM38.0335 69.0429C38.0218 68.8318 38.033 68.6164 37.9938 68.4106C37.9028 67.9322 37.6747 67.7293 37.2489 67.7066C36.808 67.6832 36.4585 67.9047 36.3677 68.3532C36.304 68.6672 36.3179 69.0057 36.3505 69.3279C36.3794 69.6142 36.6027 69.8014 36.8751 69.8285C37.253 69.866 37.6375 69.8379 38.0335 69.8379C38.0335 69.5808 38.0335 69.3463 38.0335 69.0429Z" fill="white"/>
<path d="M14.2619 69.0134C14.2585 68.9359 14.2574 68.8886 14.2516 68.8419C14.1969 68.3957 14.1002 67.959 13.6198 67.7843C13.1313 67.6067 12.6694 67.6959 12.2651 68.0354C12.2119 68.0801 12.1576 68.1234 12.0783 68.1882C11.8794 67.9859 11.6869 67.7901 11.4972 67.5973C11.9812 66.8994 12.8821 66.6112 13.8468 66.8305C14.6551 67.0143 15.2165 67.6282 15.3061 68.5282C15.352 68.99 15.3298 69.4716 15.2508 69.9291C15.1607 70.4508 14.8118 70.7482 14.2916 70.7593C13.0552 70.7858 11.8172 70.7923 10.5814 70.7551C10.2944 70.7464 10.0136 70.5309 9.70104 70.3982C9.00196 71.0389 7.55142 71.0253 6.82351 70.3624C6.4111 70.9015 5.19593 70.9122 4.59019 70.5849C4.56374 70.759 4.53854 70.9324 4.51084 71.1055C4.413 71.7168 4.0916 72.1663 3.54085 72.4534C2.4604 73.0167 0.912777 72.7066 0.324797 71.793C-0.0646001 71.188 -0.05113 70.5231 0.09241 69.8489C0.114375 69.7458 0.142061 69.6422 0.181313 69.5446C0.62317 68.4454 0.434334 68.5867 1.45435 69.0325C1.32672 69.4567 1.15206 69.871 1.08282 70.3022C0.942871 71.1738 1.49498 71.7766 2.36375 71.7638C3.08994 71.7531 3.49826 71.3573 3.51005 70.6172C3.52337 69.7808 3.51353 68.944 3.51375 68.1073C3.51378 67.9922 3.51375 67.8772 3.51375 67.7412C3.86866 67.7412 4.19252 67.7412 4.56889 67.7412C4.56889 68.213 4.56755 68.68 4.56925 69.1469C4.57105 69.6423 4.745 69.8278 5.23519 69.8615C5.28217 69.8647 5.3294 69.8645 5.37652 69.8653C6.23457 69.8798 6.36901 69.7337 6.37248 68.8657C6.37534 68.1509 6.48661 67.4631 7.16516 67.0455C8.51462 66.2148 10.0715 67.0079 10.1828 68.5767C10.1969 68.7759 10.1815 68.977 10.1877 69.177C10.2028 69.6575 10.4089 69.8627 10.8868 69.8645C11.7352 69.8679 12.5837 69.8675 13.4321 69.8647C14.1331 69.8624 14.2498 69.7444 14.2619 69.0134ZM7.51796 68.1783C7.48415 68.4795 7.41007 68.7827 7.42517 69.0814C7.45379 69.6478 7.72488 69.911 8.21832 69.9297C8.78792 69.9514 9.05957 69.7335 9.13777 69.1408C9.16946 68.9006 9.14792 68.6479 9.11454 68.4058C9.0655 68.0503 8.87651 67.796 8.50052 67.7243C8.04928 67.6382 7.78338 67.7511 7.51796 68.1783Z" fill="white"/>
<path d="M72.7659 45.0957C71.5538 45.2083 70.3735 45.3191 69.1933 45.4298C69.1829 45.3894 69.1725 45.3489 69.1621 45.3085C69.2807 45.2622 69.3973 45.2098 69.5181 45.1704C72.2781 44.2705 75.0486 43.401 77.7946 42.4602C79.0773 42.0208 80.306 41.4038 81.3042 40.4696C81.9151 39.8978 82.3828 39.1721 82.9094 38.5112C83.0762 38.3018 83.1942 38.0427 83.5407 38.0901C83.5997 38.0982 83.6797 37.9832 83.7438 37.9189C83.9844 37.6774 84.2023 37.4086 84.4656 37.1957C84.9832 36.777 85.6615 36.9142 86.0221 37.4684C86.8158 38.6883 86.5153 39.7552 85.8947 40.8521C85.6802 41.2313 85.4422 41.2691 85.0148 41.1389C84.4416 40.9642 84.0198 40.5727 83.6017 40.1715C83.3737 39.9528 83.1331 39.7471 82.8885 39.5267C82.8843 39.5313 82.8446 39.5591 82.8266 39.5971C82.0681 41.1988 80.7859 42.2778 79.2843 43.1315C77.9175 43.9085 76.483 44.5302 74.9347 44.8344C74.2325 44.9723 73.5107 45.0104 72.7659 45.0957ZM84.3392 38.5394C84.28 38.6159 84.2209 38.6925 84.1464 38.7888C84.6625 39.1535 85.0846 39.5724 85.6696 39.8759C85.7491 39.2819 85.5147 38.912 85.169 38.5869C84.9281 38.3603 84.6629 38.3765 84.3392 38.5394Z" fill="white"/>
<path d="M69.7307 69.7974C69.6555 70.5114 69.3884 70.7709 68.7108 70.7867C68.2752 70.7968 67.8389 70.7906 67.4033 70.7772C67.0328 70.7658 66.7045 70.6564 66.5127 70.2644C66.2259 70.6891 65.8132 70.7852 65.3655 70.7868C64.3404 70.7906 63.3151 70.7993 62.2903 70.7814C62.0199 70.7767 61.751 70.6828 61.4639 70.6264C61.4203 71.2302 61.4686 71.9182 60.8781 72.3786C60.4471 72.7146 59.9358 72.6798 59.4048 72.6744C59.4048 72.3618 59.4048 72.0746 59.4048 71.7879C59.4283 71.7758 59.4474 71.758 59.4674 71.7568C60.232 71.7117 60.3797 71.5705 60.3892 70.7866C60.403 69.6438 60.3966 68.5008 60.3987 67.3579C60.3989 67.2317 60.3987 67.1056 60.3987 66.9603C60.7654 66.9603 61.0888 66.9603 61.4527 66.9603C61.4527 67.6763 61.4521 68.3794 61.4528 69.0825C61.4535 69.6557 61.6357 69.8568 62.2046 69.8627C63.1236 69.8723 64.0428 69.8702 64.9617 69.8614C65.4593 69.8567 65.6051 69.6984 65.6163 69.1962C65.6192 69.0668 65.6218 68.9361 65.608 68.8078C65.5619 68.3819 65.443 67.9809 65.0089 67.801C64.5676 67.6181 64.1323 67.6736 63.737 67.9561C63.6423 68.0238 63.5529 68.0991 63.4297 68.1954C63.2402 67.9851 63.0554 67.7798 62.8702 67.5742C63.3885 66.868 64.2977 66.595 65.2761 66.8537C66.0779 67.0657 66.5859 67.683 66.6775 68.5634C66.6994 68.7737 66.7171 68.9854 66.7199 69.1968C66.7253 69.6025 66.893 69.8187 67.2973 69.8507C67.6368 69.8776 67.9801 69.8661 68.3214 69.8599C68.6226 69.8544 68.6823 69.6403 68.6836 69.3968C68.6871 68.7134 68.6857 68.03 68.6862 67.3466C68.6863 67.2206 68.6862 67.0946 68.6862 66.9547C69.0501 66.9547 69.3656 66.9547 69.7333 66.9547C69.7333 67.8954 69.7333 68.831 69.7307 69.7974Z" fill="white"/>
<path d="M26.0523 6.93359C27.0833 8.82055 27.3354 10.7968 26.8924 12.8632C26.7769 13.4018 26.6118 13.9317 26.4373 14.4548C26.3387 14.7507 26.3791 14.9314 26.6276 15.1505C27.0216 15.4977 27.3911 15.8876 27.7032 16.3096C28.2614 17.0643 28.0225 17.9188 27.9615 18.7635C27.882 19.8628 26.7844 20.6513 25.8016 20.757C24.94 20.8497 24.4057 20.4357 24.4 19.5443C24.3961 18.9308 24.4821 18.2931 24.6615 17.707C25.0186 16.5405 25.4667 15.4018 25.879 14.2523C26.4025 12.7928 26.5493 11.317 26.0095 9.83244C25.6428 8.82406 25.016 7.96846 24.3187 7.16399C23.8426 6.61473 23.8402 6.61686 24.2037 5.99327C24.6309 5.26055 24.6484 5.25029 25.231 5.8878C25.5234 6.20782 25.77 6.56974 26.0523 6.93359ZM26.8288 18.7278C27.0783 18.5391 27.3278 18.3505 27.5738 18.1646C27.1405 17.3255 26.3721 16.9992 25.6583 16.5634C25.3107 17.2024 25.106 17.8471 25.0599 18.5329C25.0325 18.9407 25.3142 19.1773 25.712 19.0862C26.0755 19.0029 26.4271 18.8679 26.8288 18.7278Z" fill="white"/>
<path d="M53.39 16.4473C53.8381 16.6571 54.2523 16.8857 54.6914 17.0461C55.9609 17.5097 57.2402 17.9466 58.5166 18.3914C58.6341 18.4323 58.7584 18.4541 58.8984 18.4895C58.9579 18.1188 58.7775 17.8567 58.5418 17.6729C58.1835 17.3933 57.8005 17.1301 57.3929 16.9322C56.569 16.5322 55.713 16.1985 54.8883 15.8C54.5873 15.6546 54.313 15.4284 54.0704 15.1938C53.6928 14.8287 53.7062 14.528 54.0833 14.1643C54.7265 13.5442 55.5286 13.2021 56.3584 12.9271C57.1376 12.669 57.9461 12.586 58.7648 12.6413C59.1566 12.6677 59.5378 12.741 59.8095 13.0731C59.9917 13.2958 60.0235 13.5297 59.8174 13.7393C59.6104 13.9499 59.3726 14.1301 59.0956 14.3691C58.7647 13.352 57.9823 13.5353 57.3165 13.5755C56.6408 13.6164 55.9708 13.7781 55.3034 13.912C55.1611 13.9406 55.0404 14.0773 54.9098 14.1641C55.0105 14.2882 55.0859 14.4635 55.2161 14.5282C56.1091 14.9716 57.0052 15.4111 57.9176 15.8125C58.472 16.0564 59.0203 16.2883 59.4158 16.7715C59.8976 17.3602 59.9036 17.9809 59.4198 18.5679C59.2856 18.7307 59.1289 18.8763 58.973 19.0195C58.6175 19.3463 58.2338 19.4539 57.7441 19.2888C56.4086 18.8386 55.0419 18.475 53.726 17.9759C53.2006 17.7767 52.7243 17.363 52.3193 16.9542C51.878 16.5087 51.7844 15.9013 51.8996 15.2994C52.3912 15.6796 52.8793 16.0573 53.39 16.4473Z" fill="white"/>
<path d="M36.9725 12.2787C38.0451 12.2649 39.0797 12.2558 40.0916 12.5547C40.9611 12.8116 41.0972 13.0431 40.6538 13.8289C39.9939 14.9985 39.1583 16.0451 38.0607 16.8264C37.6242 17.137 37.0598 17.2856 36.5358 17.4519C35.6086 17.7461 34.6677 17.9974 33.7326 18.2666C33.7153 18.2324 33.698 18.1981 33.6808 18.1639C33.7855 18.0894 33.8851 18.0062 33.9958 17.9419C35.1762 17.256 36.3588 16.5739 37.5396 15.8888C37.8144 15.7294 38.0899 15.5702 38.3555 15.3964C38.59 15.243 38.5832 15.0956 38.3199 15.0143C38.0196 14.9214 37.7026 14.8416 37.3909 14.8337C36.2009 14.8037 35.0101 14.8048 33.8196 14.7946C33.7039 14.7936 33.5882 14.7945 33.4136 14.7945C33.4798 14.6256 33.5149 14.4924 33.5805 14.3766C33.8124 13.9669 34.0467 13.5581 34.2953 13.1584C34.6093 12.6535 35.0766 12.3857 35.6665 12.3427C36.0893 12.3119 36.5136 12.2995 36.9725 12.2787Z" fill="white"/>
<path d="M0.344708 56.2012C7.58662 56.2012 14.7941 56.2012 22.0251 56.2012C22.0251 56.4814 22.0251 56.7447 22.0251 57.0292C14.6935 57.0292 7.3611 57.0292 0.00537109 57.0292C0.00537109 56.769 0.00537109 56.5056 0.00537109 56.2183C0.106055 56.2127 0.208141 56.2069 0.344708 56.2012Z" fill="white"/>
<path d="M71.7659 56.2718C71.7477 55.7313 71.7671 55.2214 71.7031 54.7221C71.5911 53.8501 71.0302 53.4232 70.0996 53.4374C69.2508 53.4504 68.6031 53.9956 68.5184 54.7993C68.4803 55.161 68.4902 55.5283 68.4887 55.8931C68.4852 56.8001 68.4884 57.7072 68.4866 58.6142C68.4863 58.741 68.4728 58.8678 68.4644 59.0126C68.2406 59.0126 68.0449 59.0126 67.8093 59.0126C67.8006 58.8735 67.7856 58.7382 67.7846 58.6029C67.7758 57.39 67.8147 56.1746 67.7488 54.9648C67.6888 53.8628 67.1043 53.3895 66.0494 53.439C65.1265 53.4822 64.5068 54.1565 64.4983 55.1531C64.4885 56.3074 64.4909 57.4619 64.4992 58.6162C64.5011 58.8795 64.4987 59.0505 64.1396 59.0463C63.7992 59.0424 63.7918 58.8826 63.7926 58.6316C63.798 56.8411 63.8008 55.0506 63.7901 53.2601C63.7883 52.9722 63.8683 52.8758 64.1673 52.871C64.4851 52.8658 64.5166 53.017 64.4971 53.2598C64.4879 53.3747 64.4956 53.491 64.4956 53.7158C65.0125 52.9892 65.6693 52.7202 66.4503 52.7557C67.2315 52.7911 67.8658 53.0879 68.2296 53.8797C68.2834 53.8108 68.319 53.7749 68.3435 53.7326C69.0439 52.5191 70.8837 52.5475 71.6895 53.1859C72.2541 53.6332 72.4448 54.2609 72.4583 54.936C72.4838 56.2077 72.4609 57.4803 72.4731 58.7524C72.4759 59.0438 72.313 59.0329 72.1105 59.036C71.9 59.0391 71.7543 59.0306 71.7601 58.7455C71.7767 57.933 71.7659 57.12 71.7659 56.2718Z" fill="white"/>
<path d="M28.8245 53.0936C29.0585 53.3365 29.2701 53.5666 29.4998 53.8164C29.7993 53.3693 30.1747 52.9393 30.7543 52.8651C31.2457 52.8022 31.7718 52.7666 32.2472 52.8745C33.1735 53.0847 33.6598 53.8195 33.687 54.9638C33.7169 56.2235 33.6935 57.4845 33.7 58.7449C33.7011 58.9519 33.6371 59.0556 33.4156 59.0332C33.2999 59.0215 33.1821 59.0311 33.0224 59.0311C33.0136 58.8888 32.9996 58.765 32.9994 58.6412C32.9976 57.5574 33.0026 56.4736 32.9951 55.39C32.9933 55.1322 32.9753 54.8702 32.9253 54.6179C32.7681 53.8249 32.2155 53.4236 31.3308 53.4365C30.5251 53.4482 29.8852 53.9549 29.7607 54.6911C29.7275 54.8874 29.7121 55.0889 29.7112 55.288C29.7065 56.3835 29.7089 57.4791 29.7089 58.5746C29.7089 58.7133 29.7089 58.8519 29.7089 58.9692C29.6448 59.001 29.6247 59.0184 29.603 59.0207C29.0093 59.0852 29.006 59.0821 29.0059 58.4967C29.0057 57.4483 29.0085 56.3999 29.0033 55.3515C29.0022 55.1167 28.999 54.8769 28.9524 54.6484C28.7746 53.775 28.1626 53.3589 27.2081 53.4411C26.3436 53.5155 25.7428 54.1675 25.7326 55.0813C25.7194 56.2709 25.7215 57.4609 25.7341 58.6505C25.7371 58.9275 25.6822 59.0382 25.3716 59.0438C25.0327 59.05 25.0216 58.8896 25.0225 58.6347C25.0289 56.8442 25.0311 55.0536 25.0205 53.2631C25.0189 52.9805 25.0865 52.8718 25.3918 52.87C25.6964 52.8682 25.7573 52.9935 25.7308 53.2504C25.7182 53.3728 25.7286 53.4975 25.7286 53.6537C26.7486 52.6723 27.77 52.4909 28.8245 53.0936Z" fill="white"/>
<path d="M31.3767 67.0044C31.9801 66.7039 32.5956 66.6706 33.1782 66.9048C33.4936 67.0315 33.8242 67.286 33.9953 67.5737C34.4366 68.3157 34.4177 69.1329 34.0905 69.9169C33.8485 70.4966 33.3326 70.7513 32.7302 70.7659C31.5884 70.7936 30.4457 70.7852 29.3034 70.7891C28.6556 70.7914 28.0076 70.7971 27.36 70.7855C26.6741 70.7731 26.3718 70.5256 26.3261 69.846C26.2788 69.1424 26.3017 68.4336 26.3126 67.7274C26.3137 67.6586 26.4413 67.5408 26.5186 67.5334C26.7742 67.5086 27.0337 67.524 27.3533 67.524C27.3533 67.9974 27.3533 68.4506 27.3533 68.9038C27.3533 69.8656 27.3533 69.8656 28.3223 69.8656C29.0872 69.8656 29.852 69.8656 30.6228 69.8656C30.4072 68.7863 30.2695 67.7429 31.3767 67.0044ZM31.8563 67.8665C31.4885 68.182 31.4978 68.607 31.5248 69.0327C31.5608 69.6 31.8206 69.8595 32.3519 69.8754C32.9185 69.8922 33.1756 69.6661 33.2431 69.0741C33.2614 68.9129 33.2628 68.746 33.2439 68.5851C33.1506 67.7899 32.6311 67.5014 31.8563 67.8665Z" fill="white"/>
<path d="M54.7164 70.2005C53.782 70.6456 52.7343 70.3718 52.3086 69.5888C51.6005 68.2861 52.4172 66.8209 53.8868 66.764C54.2009 66.7519 54.5159 66.7623 54.8399 66.7623C54.8545 66.5857 54.8659 66.4487 54.8807 66.2708C55.1706 66.2708 55.4533 66.2498 55.7287 66.2853C55.7987 66.2944 55.8937 66.4821 55.8954 66.589C55.9089 67.4607 55.9021 68.3327 55.9033 69.2046C55.9042 69.8172 55.9516 69.8633 56.5696 69.8656C56.7816 69.8664 56.9938 69.8692 57.2058 69.8647C57.6061 69.8562 57.6989 69.7654 57.7014 69.3545C57.7062 68.5674 57.7028 67.7802 57.7028 66.9666C58.0557 66.9666 58.3793 66.9666 58.7592 66.9666C58.7592 67.1741 58.7592 67.3923 58.7592 67.6105C58.759 68.2938 58.7641 68.9773 58.7574 69.6606C58.7493 70.4674 58.4426 70.7791 57.6497 70.7882C57.0724 70.7948 56.495 70.7914 55.9177 70.7878C55.483 70.7851 55.0925 70.7024 54.9238 70.2215C54.9138 70.193 54.8044 70.1993 54.7164 70.2005ZM54.4729 69.3707C55.0546 68.9157 54.8011 68.2923 54.8566 67.7122C54.5011 67.7122 54.1951 67.6933 53.8924 67.7163C53.3438 67.7579 53.1184 68.0826 53.1543 68.7371C53.1814 69.2304 53.4691 69.4998 53.9818 69.4889C54.1307 69.4858 54.2785 69.432 54.4729 69.3707Z" fill="white"/>
<path d="M17.9435 70.6138C17.8975 70.9565 17.8827 71.276 17.8198 71.5857C17.6887 72.2306 17.2707 72.5809 16.6225 72.6446C16.3802 72.6683 16.1337 72.6484 15.8618 72.6484C15.8618 72.3581 15.8618 72.0717 15.8618 71.7859C16.7367 71.6926 16.8507 71.655 16.8721 70.5373C16.8926 69.465 16.8771 68.3921 16.8775 67.3194C16.8775 67.2049 16.8775 67.0904 16.8775 66.9576C17.2372 66.9576 17.5608 66.9576 17.931 66.9576C17.931 67.2877 17.931 67.6022 17.931 67.9168C17.931 68.3412 17.9283 68.7656 17.9319 69.1899C17.9355 69.623 18.1056 69.8197 18.5354 69.853C18.8166 69.8748 19.1065 69.893 19.381 69.8458C19.5128 69.8232 19.6487 69.6634 19.725 69.5322C19.783 69.4325 19.7558 69.2798 19.7559 69.1507C19.7574 67.7362 19.7569 66.3216 19.7569 64.9071C19.7569 64.7788 19.7569 64.6506 19.7569 64.4971C20.1067 64.4971 20.4292 64.4971 20.7855 64.4971C20.7918 64.604 20.8042 64.7172 20.8043 64.8305C20.8055 66.3864 20.806 67.9424 20.8035 69.4984C20.8032 69.6747 20.7978 69.8535 20.769 70.0268C20.7053 70.4102 20.4943 70.7156 20.0995 70.7459C19.5264 70.79 18.9469 70.7662 18.371 70.7468C18.23 70.7421 18.0922 70.6423 17.9435 70.6138Z" fill="white"/>
<path d="M89.9996 69.6168C89.9117 70.5744 89.6797 70.788 88.7508 70.7894C87.5367 70.7912 86.3226 70.7899 85.1086 70.7899C84.9932 70.7899 84.8779 70.7899 84.7235 70.7899C84.7235 70.5214 84.7021 70.2859 84.7356 70.0584C84.7467 69.9834 84.8975 69.8776 84.9878 69.8742C85.4695 69.8559 85.9522 69.8656 86.4671 69.8656C86.4671 68.5115 86.4671 67.1729 86.4671 65.8059C86.8324 65.8059 87.1653 65.8059 87.5346 65.8059C87.5346 67.1633 87.5346 68.5005 87.5346 69.8654C87.8265 69.8654 88.0832 69.8664 88.3398 69.8652C88.8605 69.8627 88.9446 69.7778 88.9458 69.241C88.9476 68.4159 88.9463 67.5908 88.9463 66.7657C88.9463 66.0144 88.9463 65.263 88.9463 64.4922C89.3038 64.4922 89.6272 64.4922 89.9998 64.4922C89.9998 66.197 89.9998 67.8905 89.9996 69.6168Z" fill="white"/>
<path d="M82.6889 68.0836C82.6889 67.6968 82.6889 67.3453 82.6889 66.9674C83.0427 66.9674 83.3645 66.9674 83.7394 66.9674C83.7394 67.0863 83.7395 67.2104 83.7394 67.3345C83.7385 68.1356 83.7497 68.9369 83.7333 69.7377C83.718 70.4822 83.4106 70.7718 82.6625 70.7878C82.3799 70.7939 82.096 70.8053 81.8146 70.7863C81.4581 70.7621 81.1035 70.7093 80.724 70.6661C80.6614 71.2302 80.7263 71.9167 80.1432 72.3729C79.711 72.7111 79.199 72.6795 78.6611 72.6739C78.6611 72.373 78.6611 72.0869 78.6611 71.7938C78.6706 71.7867 78.6874 71.7631 78.7061 71.7616C79.5025 71.6969 79.6234 71.6021 79.6443 70.8054C79.6739 69.6752 79.6603 68.544 79.665 67.4132C79.6656 67.2729 79.6651 67.1327 79.6651 66.9668C80.0129 66.9668 80.335 66.9668 80.7131 66.9668C80.7131 67.2636 80.713 67.5644 80.7131 67.8651C80.7132 68.3128 80.7076 68.7606 80.7151 69.2081C80.722 69.6194 80.8957 69.8149 81.3064 69.8525C81.5753 69.877 81.8478 69.8668 82.1186 69.8658C82.6103 69.8639 82.6831 69.7901 82.688 69.2852C82.6918 68.8965 82.6889 68.5077 82.6889 68.0836Z" fill="white"/>
<path d="M53.3381 58.9118C52.8294 59.1922 52.6894 59.0757 52.6621 58.3505C51.8978 59.2264 50.9422 59.3099 49.9237 59.0363C49.0778 58.809 48.6879 58.2159 48.7015 57.2852C48.7141 56.4237 49.1354 55.8298 49.9858 55.665C50.6036 55.5453 51.248 55.5602 51.8811 55.5244C52.1259 55.5105 52.3721 55.5221 52.6984 55.5221C52.6552 55.0322 52.6614 54.5713 52.5636 54.1338C52.4573 53.6582 52.0485 53.4917 51.5989 53.4425C50.8213 53.3574 50.068 53.4001 49.4024 53.9444C49.2761 53.7656 49.1712 53.6171 49.0207 53.404C49.3283 53.2381 49.588 53.0537 49.8768 52.9509C50.6416 52.6787 51.4297 52.6892 52.2082 52.8873C52.8482 53.0501 53.2587 53.5423 53.2991 54.2516C53.3493 55.1329 53.342 56.0177 53.3504 56.9011C53.3566 57.561 53.3483 58.2212 53.3381 58.9118ZM52.6086 56.146C52.0918 56.1396 51.5748 56.1229 51.0582 56.1312C50.7896 56.1355 50.5164 56.1601 50.2546 56.2176C49.6846 56.3429 49.3977 56.7144 49.383 57.2972C49.3688 57.8603 49.6303 58.2363 50.1712 58.4081C50.7169 58.5814 51.265 58.5609 51.7948 58.3548C52.3683 58.1317 52.6664 57.7 52.6651 57.0767C52.6644 56.783 52.657 56.4893 52.6086 56.146Z" fill="white"/>
<path d="M44.7858 56.0301C44.7199 55.9319 44.6689 55.8546 44.5901 55.7353C44.1574 56.2475 43.7388 56.7334 43.3353 57.2317C43.2789 57.3014 43.2839 57.4313 43.2828 57.5336C43.2778 58.0145 43.2806 58.4955 43.2806 58.9934C43.1728 59.0093 43.0951 59.0199 43.0176 59.0323C42.6908 59.0847 42.5718 58.9713 42.5738 58.6177C42.5882 55.9671 42.5814 53.3164 42.5819 50.6658C42.582 50.3056 42.8691 50.1124 43.1718 50.2914C43.2474 50.336 43.2758 50.51 43.2762 50.6248C43.2826 52.3447 43.2806 54.0647 43.2806 55.7847C43.2806 55.912 43.2806 56.0393 43.2806 56.2408C43.3887 56.1426 43.4565 56.0934 43.5092 56.0314C44.2951 55.1071 45.0994 54.1975 45.853 53.2475C46.1456 52.8786 46.4628 52.8399 46.9596 52.9208C46.3041 53.7 45.6899 54.4301 45.0686 55.1687C45.8491 56.4436 46.6196 57.7023 47.3994 58.976C46.728 59.116 46.6721 59.0944 46.3724 58.6072C45.8484 57.7552 45.3246 56.9031 44.7858 56.0301Z" fill="white"/>
<path d="M38.101 53.4106C37.528 53.4035 37.0057 53.4698 36.5603 53.8062C36.3689 53.9507 36.2773 53.8621 36.1682 53.7037C36.0547 53.539 35.9892 53.4113 36.2004 53.266C36.8667 52.8077 37.6155 52.7253 38.3926 52.7645C38.5684 52.7733 38.7452 52.7927 38.9181 52.8255C39.8077 52.9942 40.2731 53.555 40.2896 54.5628C40.3125 55.9636 40.2907 57.3652 40.302 58.7664C40.3042 59.0374 40.1598 59.0376 39.9671 59.0346C39.7835 59.0318 39.5989 59.0547 39.6208 58.7776C39.6299 58.6618 39.6223 58.5447 39.6223 58.321C39.1986 58.8514 38.7071 59.1046 38.1297 59.1344C37.7462 59.1541 37.3468 59.1522 36.9757 59.0675C36.0519 58.8567 35.5624 58.1319 35.6428 57.1844C35.7226 56.2449 36.3152 55.6626 37.3408 55.5752C37.9376 55.5244 38.5399 55.5375 39.1397 55.5233C39.2787 55.52 39.4178 55.5228 39.5527 55.5228C39.7524 53.9218 39.4334 53.4329 38.101 53.4106ZM38.6337 56.1263C38.1775 56.1515 37.7157 56.1405 37.2666 56.2109C36.649 56.3077 36.3417 56.7027 36.334 57.3044C36.3263 57.9007 36.6339 58.3071 37.2273 58.4418C37.4653 58.4958 37.7181 58.5312 37.9598 58.5142C38.6419 58.466 39.3127 58.3045 39.5269 57.5575C39.654 57.1141 39.5982 56.6182 39.6257 56.1263C39.2658 56.1263 38.985 56.1263 38.6337 56.1263Z" fill="white"/>
<path d="M82.1739 9.52338C80.8621 9.97917 79.5773 10.428 78.2925 10.8769C78.2695 10.8577 78.2466 10.8385 78.2236 10.8193C78.4386 10.3876 78.6349 9.94497 78.8793 9.53065C78.9579 9.39747 79.1517 9.30359 79.3121 9.25163C82.5339 8.20842 85.7584 7.17368 88.9829 6.13892C89.1019 6.10075 89.2263 6.07976 89.418 6.03418C89.1382 6.65827 88.9391 7.20274 88.2359 7.43306C86.2137 8.09531 84.2112 8.81769 82.1739 9.52338Z" fill="white"/>
<path d="M83.7937 56.2012C85.878 56.2012 87.927 56.2012 89.9968 56.2012C89.9968 56.4872 89.9968 56.7507 89.9968 57.0321C85.1599 57.0321 80.3311 57.0321 75.4751 57.0321C75.4751 56.7764 75.4751 56.5129 75.4751 56.2012C78.2287 56.2012 80.9935 56.2012 83.7937 56.2012Z" fill="white"/>
<path d="M19.4014 30.0735C19.3982 28.3723 19.8788 26.8228 20.5868 25.3326C20.7656 24.9561 20.9737 24.5936 21.1684 24.2246C21.1968 24.2371 21.2251 24.2496 21.2535 24.2621C21.0358 25.0207 20.8122 25.7777 20.602 26.5383C20.3514 27.4448 20.086 28.3538 20.1984 29.31C20.2464 29.7187 20.3216 30.1764 20.794 30.3007C21.267 30.4252 21.4994 30.0149 21.7507 29.7122C21.889 29.5457 21.9942 29.3518 22.1152 29.1689C22.1565 29.2017 22.1878 29.2163 22.1865 29.2269C22.0856 30.036 21.922 30.8215 21.4149 31.4954C20.9958 32.0523 19.9139 32.1703 19.639 31.2021C19.537 30.8431 19.4809 30.471 19.4014 30.0735Z" fill="white"/>
<path d="M78.0136 69.0728C78.0136 69.6495 78.0136 70.1909 78.0136 70.7613C77.6684 70.7613 77.3365 70.7613 76.9824 70.7613C76.9824 68.6749 76.9824 66.5967 76.9824 64.4951C77.3197 64.4951 77.6429 64.4951 78.0136 64.4951C78.0136 66.0085 78.0136 67.523 78.0136 69.0728Z" fill="white"/>
<path d="M50.9789 5.21865C50.993 6.0166 51.0455 6.78663 50.7437 7.51538C50.6748 7.68183 50.552 7.82596 50.454 7.98036C50.4188 7.96457 50.3835 7.94877 50.3483 7.93297C50.3598 7.70328 50.3593 7.47227 50.3847 7.24411C50.5566 5.69446 50.0606 4.37212 49.028 3.23141C48.7515 2.92596 48.4765 2.61831 48.184 2.32859C47.9811 2.12763 47.9599 1.94059 48.118 1.70564C48.2616 1.49222 48.3813 1.26272 48.5402 0.991211C49.9742 2.05541 50.8283 3.41124 50.9789 5.21865Z" fill="white"/>
<path d="M56.3413 58.3172C56.3413 58.4461 56.3416 58.5404 56.3412 58.6347C56.3394 58.9975 56.0797 59.1715 55.7504 59.014C55.6913 58.9858 55.6448 58.8664 55.6446 58.789C55.6388 56.9031 55.6436 55.0172 55.6362 53.1314C55.6351 52.8445 55.8142 52.8841 55.9903 52.8811C56.1744 52.8779 56.3588 52.8623 56.3428 53.1384C56.3334 53.2995 56.3411 53.4615 56.3411 53.7035C56.4232 53.6055 56.4613 53.5702 56.4873 53.5275C57.0679 52.5751 58.3967 52.6006 59.0892 53.0746C59.2298 53.1708 59.3486 53.2671 59.1957 53.4354C59.0711 53.5725 59.0378 53.8654 58.7222 53.6954C58.5183 53.5856 58.2925 53.4866 58.0662 53.4537C57.2322 53.3322 56.6219 53.7808 56.4336 54.6485C56.3717 54.9337 56.3491 55.2319 56.3456 55.5245C56.3346 56.4437 56.3414 57.3632 56.3413 58.3172Z" fill="white"/>
<path d="M67.6011 41.4247C67.3154 41.1569 67.0171 41.1551 66.6996 41.2935C66.5404 41.3629 66.3782 41.4253 66.2147 41.4919C65.9469 40.495 66.9952 39.3759 67.9686 39.5888C68.3243 39.6666 68.6011 39.9684 68.659 40.3521C68.7963 41.262 68.5217 42.0705 68.0476 42.831C67.4317 43.819 66.5629 44.5564 65.6554 45.2558C65.6003 45.2983 65.534 45.3271 65.4704 45.3571C65.4555 45.3641 65.4305 45.3498 65.3569 45.3335C65.4933 45.1665 65.6208 45.0213 65.7362 44.867C66.3484 44.0488 66.9595 43.2299 67.5668 42.4081C67.7924 42.1028 67.8026 41.7785 67.6011 41.4247Z" fill="white"/>
<path d="M22.0161 69.0729C22.0161 67.5313 22.0161 66.0251 22.0161 64.4961C22.3689 64.4961 22.6911 64.4961 23.0367 64.4961C23.0367 66.5824 23.0367 68.661 23.0367 70.7636C22.7087 70.7636 22.3868 70.7636 22.0161 70.7636C22.0161 70.2068 22.0161 69.6575 22.0161 69.0729Z" fill="white"/>
<path d="M74.1129 68.9162C74.1258 69.1743 74.1088 69.4155 74.1773 69.6293C74.2605 69.8888 74.4508 70.0403 74.7682 70.0118C75.1067 69.9815 75.4515 70.0251 75.7906 69.999C76.0862 69.9762 76.1692 70.096 76.1386 70.3643C76.1243 70.4899 76.1362 70.6186 76.1362 70.7675C75.0015 70.7675 73.902 70.7675 72.805 70.7675C72.6899 70.086 72.696 70.0768 73.2506 69.9818C73.2506 69.5539 73.1906 69.1302 73.2652 68.7316C73.3669 68.1883 73.7711 67.8595 74.3048 67.749C74.9058 67.6247 75.4839 67.6907 75.9298 68.1738C75.9823 68.2307 75.9736 68.4412 75.9204 68.4796C75.7726 68.5864 75.7216 68.9105 75.4304 68.7423C75.3494 68.6955 75.2797 68.629 75.1979 68.5841C74.7811 68.3551 74.3692 68.4726 74.1129 68.9162Z" fill="white"/>
<path d="M85.0785 15.5979C84.708 15.1544 84.3727 14.7116 83.9877 14.3174C83.7375 14.0614 83.6738 13.849 83.8975 13.5587C84.0035 13.4213 84.0799 13.2611 84.1889 13.0791C85.5014 14.0732 86.2144 15.3362 86.2401 16.9721C86.2509 17.6609 86.2147 18.3292 85.7465 18.9046C85.7897 17.747 85.8161 16.6085 85.0785 15.5979Z" fill="white"/>
<path d="M61.2817 59.029C60.737 59.0325 60.7369 59.0325 60.7369 58.522C60.7368 56.7678 60.7428 55.0135 60.731 53.2593C60.7291 52.9711 60.8056 52.8743 61.1046 52.8721C61.414 52.8698 61.4443 53.0084 61.4433 53.2589C61.4362 55.0602 61.4419 56.8615 61.4341 58.6628C61.4336 58.7844 61.3558 58.9056 61.2817 59.029Z" fill="white"/>
<path d="M82.353 4.65717C82.2415 3.55434 82.5352 2.55339 82.9203 1.57621C83.1034 1.11137 83.3489 0.671081 83.6314 0.249023C83.4162 1.0486 83.1643 1.84074 82.9998 2.65063C82.9064 3.11082 82.882 3.61245 82.9596 4.07305C83.0567 4.65035 83.4601 4.72752 83.8561 4.29545C84.0105 4.12696 84.1333 3.92943 84.3025 3.75855C84.216 4.35388 84.1431 4.95433 83.7256 5.43309C83.3333 5.88301 82.7355 5.78069 82.5104 5.22794C82.4403 5.05578 82.4082 4.86816 82.353 4.65717Z" fill="white"/>
<path d="M87.7368 72.8966C88.1571 72.8695 88.0014 73.1407 88.0218 73.3511C87.3295 73.3511 86.654 73.3511 85.9541 73.3511C85.9541 73.2091 85.9541 73.0754 85.9541 72.92C86.0639 72.9053 86.165 72.8919 86.2019 72.8869C86.2325 72.5501 86.2224 72.2248 86.3058 71.9255C86.3483 71.7729 86.5397 71.632 86.6968 71.547C87.1111 71.3228 87.6482 71.45 88.0096 71.8636C87.9056 71.9443 87.7979 72.0281 87.6687 72.1285C87.6133 72.091 87.5507 72.0139 87.4829 72.0091C87.2863 71.9952 87.0368 71.94 86.9053 72.0352C86.7911 72.1178 86.7567 72.3916 86.7829 72.5666C86.8157 72.7856 86.9834 72.9275 87.245 72.8995C87.3965 72.8833 87.5511 72.8966 87.7368 72.8966Z" fill="white"/>
<path d="M31.8893 65.2814C31.9627 65.1742 32.0303 65.0416 32.1107 65.0333C32.3777 65.0057 32.6493 65.0229 32.9809 65.0229C32.9809 65.3063 33.048 65.5941 32.966 65.8302C32.8244 66.2384 32.4397 65.936 32.1715 66.0016C32.0977 66.0196 31.929 65.8936 31.9021 65.8042C31.8566 65.6529 31.8894 65.478 31.8893 65.2814Z" fill="white"/>
<path d="M64.1318 72.0437C64.1318 71.8826 64.1318 71.7543 64.1318 71.5967C64.4884 71.5967 64.823 71.5967 65.1842 71.5967C65.1842 71.903 65.1842 72.2124 65.1842 72.5398C64.8396 72.5398 64.5036 72.5398 64.1318 72.5398C64.1318 72.376 64.1318 72.2263 64.1318 72.0437Z" fill="white"/>
<path d="M58.0545 72.557C57.8724 72.557 57.722 72.557 57.5547 72.557C57.5547 72.2236 57.5547 71.9233 57.5547 71.5947C57.8966 71.5947 58.229 71.5947 58.5883 71.5947C58.5883 71.9015 58.5883 72.2006 58.5883 72.557C58.4262 72.557 58.2562 72.557 58.0545 72.557Z" fill="white"/>
<path d="M47.108 66.0097C46.7862 66.0123 46.4954 66.0123 46.1865 66.0123C46.1865 65.665 46.1865 65.364 46.1865 65.043C46.5299 65.043 46.8662 65.043 47.2893 65.043C47.2375 65.3751 47.1883 65.6911 47.108 66.0097Z" fill="white"/>
<path d="M2.3317 67.2463C2.10544 67.27 1.98316 67.23 2.00248 66.9897C2.02101 66.7592 2.00648 66.5261 2.00648 66.2846C2.11521 66.2724 2.18272 66.2598 2.25052 66.258C3.16889 66.2332 3.19345 66.2623 3.04831 67.2463C2.82629 67.2463 2.59554 67.2463 2.3317 67.2463Z" fill="white"/>
<path d="M42.3565 71.9168C42.3565 72.1466 42.3565 72.3437 42.3565 72.5862C42.0716 72.5862 41.8162 72.5998 41.5642 72.5768C41.4997 72.5709 41.4015 72.4533 41.395 72.3802C41.3736 72.1378 41.3869 71.8922 41.3869 71.5968C41.6772 71.5968 41.9436 71.5793 42.2044 71.6099C42.265 71.617 42.3063 71.7882 42.3565 71.9168Z" fill="white"/>
<path d="M84.2359 65.0437C84.2652 65.3581 84.2652 65.66 84.2652 66.0133C84.0117 66.0133 83.7561 66.027 83.5038 66.0042C83.4365 65.9981 83.3327 65.8842 83.3262 65.8125C83.3039 65.5691 83.3177 65.3224 83.3177 65.0312C83.6305 65.0312 83.9185 65.0312 84.2359 65.0437Z" fill="white"/>
<path d="M82.468 65.0215C82.6858 65.0215 82.8724 65.0215 83.0723 65.0215C83.0723 65.3583 83.0723 65.66 83.0723 66.0125C82.8026 66.0125 82.5464 66.0261 82.2935 66.0033C82.2267 65.9973 82.1236 65.8829 82.1171 65.811C82.095 65.5672 82.1087 65.3201 82.1087 65.0444C82.234 65.0356 82.3354 65.0286 82.468 65.0215Z" fill="white"/>
<path d="M68.5907 65.0215C68.7616 65.0215 68.9012 65.0215 69.0651 65.0215C69.0651 65.3534 69.0651 65.6607 69.0651 66.0121C68.7983 66.0121 68.5426 66.0233 68.2893 66.0041C68.2285 65.9995 68.1308 65.8975 68.1262 65.8347C68.1075 65.5801 68.1184 65.3234 68.1184 65.0215C68.2861 65.0215 68.4227 65.0215 68.5907 65.0215Z" fill="white"/>
<path d="M54.1924 65.4245C54.1916 64.6017 54.1916 64.6014 54.9774 64.6425C55.0227 64.6449 55.0673 64.6584 55.1343 64.6708C55.1343 64.9745 55.1343 65.2722 55.1343 65.6274C54.8681 65.6274 54.594 65.6353 54.3213 65.6197C54.2755 65.6171 54.2355 65.5126 54.1924 65.4245Z" fill="white"/>
<path d="M41.1493 72.3758C41.083 72.4679 41.0229 72.5703 40.9498 72.5805C40.208 72.6845 40.1631 72.6407 40.1753 71.8878C40.1767 71.8071 40.1866 71.7265 40.1943 71.6211C40.5027 71.6211 40.8016 71.6211 41.1495 71.6211C41.1495 71.8616 41.1495 72.1025 41.1493 72.3758Z" fill="white"/>
<path d="M53.9522 65.3085C53.9766 65.5339 53.9371 65.6563 53.6968 65.6357C53.4777 65.617 53.2558 65.6318 52.9801 65.6318C52.9801 65.3402 52.9694 65.0754 52.9881 64.8127C52.9925 64.7518 53.094 64.6534 53.1564 64.6487C53.4096 64.6299 53.6651 64.6409 53.9522 64.6409C53.9522 64.8827 53.9522 65.0793 53.9522 65.3085Z" fill="white"/>
<path d="M70.2949 65.6684C70.3228 65.9154 70.2645 66.038 70.013 66.0159C69.8045 65.9975 69.593 66.0121 69.3574 66.0121C69.3574 65.6789 69.3574 65.378 69.3574 65.0498C69.6515 65.0498 69.9511 65.0498 70.2949 65.0498C70.2949 65.2437 70.2949 65.4395 70.2949 65.6684Z" fill="white"/>
<path d="M83.6756 64.6432C83.5727 64.7204 83.474 64.7951 83.3683 64.8068C83.1733 64.8284 82.9741 64.813 82.7466 64.813C82.7466 64.4831 82.7466 64.1761 82.7466 63.8467C83.0378 63.8467 83.3353 63.8467 83.6766 63.8467C83.6766 64.1057 83.6766 64.359 83.6756 64.6432Z" fill="white"/>
<path d="M60.6717 50.4334C60.9114 50.3603 61.1488 50.2973 61.3858 50.2989C61.4269 50.2991 61.4969 50.5715 61.5008 50.7197C61.5153 51.2599 61.3735 51.3706 60.8372 51.2424C60.7683 51.2259 60.6867 51.109 60.6767 51.0302C60.6531 50.8447 60.6693 50.6541 60.6717 50.4334Z" fill="white"/>
<path d="M28.6812 34.5421C28.6907 34.5221 28.7083 34.5096 28.7258 34.4971C28.7296 34.5157 28.7333 34.5343 28.721 34.5588C28.705 34.5646 28.6891 34.5496 28.6812 34.5421Z" fill="white"/>
<path d="M76.5792 19.6614C76.7729 19.2859 77.0814 19.0981 77.3848 19.1433C77.7795 19.2021 77.9785 19.4022 78.0717 19.8556C78.2611 20.7766 77.8611 21.3231 77.1563 21.1759C76.9488 21.1326 76.6571 20.9516 76.613 20.7799C76.5246 20.4364 76.5806 20.0557 76.5792 19.6614Z" fill="white"/>
</svg>
