<svg width="184" height="58" viewBox="0 0 184 58" fill="none" xmlns="http://www.w3.org/2000/svg">
<path d="M98.8546 22.9509C99.0154 22.9509 99.1509 22.9509 99.3068 22.9509C99.3068 19.9776 99.3068 17.0141 99.3068 14.0353C100.201 14.0353 101.074 14.0353 101.968 14.0353C101.968 16.9937 101.968 19.9572 101.968 22.9509C102.07 22.9509 102.151 22.9509 102.233 22.9509C103.444 22.9509 104.655 22.954 105.866 22.95C107.042 22.9461 108.035 22.1245 108.269 20.9104C108.281 20.852 108.271 20.7895 108.271 20.7289C108.272 19.8722 108.26 19.0153 108.275 18.1588C108.291 17.2415 108.448 16.3503 108.902 15.5417C109.673 14.1711 110.802 13.2952 112.344 12.9765C113.211 12.7972 114.083 12.9145 114.953 12.8791C115.792 12.8448 116.578 13.0602 117.32 13.4488C118.184 13.9015 118.858 14.558 119.344 15.4138C119.712 16.0605 119.957 16.7444 119.99 17.4976C120.003 17.7964 120.037 18.0948 120.038 18.3934C120.042 20.7126 120.04 23.0319 120.04 25.3511C120.04 25.4443 120.04 25.5375 120.04 25.651C119.938 25.651 119.855 25.651 119.772 25.651C117.606 25.651 115.44 25.6512 113.274 25.6509C112.26 25.6507 111.333 25.3607 110.503 24.7698C110.197 24.5513 109.911 24.3017 109.611 24.062C108.87 24.8228 107.979 25.3552 106.91 25.5568C106.698 25.5968 106.483 25.6466 106.27 25.647C103.055 25.6527 99.8398 25.6614 96.625 25.6449C95.5967 25.6396 94.6704 25.2713 93.8498 24.6431C93.6095 24.4592 93.3853 24.2537 93.1482 24.0534C92.1049 25.0996 90.8639 25.6591 89.3653 25.6596C87.8635 25.6601 86.6119 25.1225 85.5695 24.0431C85.2937 24.2737 85.0293 24.5214 84.7387 24.732C84.1845 25.1337 83.5735 25.4309 82.8987 25.5393C82.4281 25.6149 81.9459 25.6445 81.4688 25.6463C78.8508 25.656 76.2328 25.6508 73.6148 25.6505C73.598 25.6505 73.5811 25.6479 73.5464 25.645C73.5464 20.0175 73.5464 14.3887 73.5464 8.7417C74.4234 8.7417 75.3141 8.7417 76.2252 8.7417C76.2252 13.4573 76.2252 18.1861 76.2252 22.9509C76.3345 22.9509 76.4239 22.9509 76.5134 22.9509C78.2957 22.9509 80.0782 22.968 81.8602 22.9448C83.0269 22.9296 83.9956 22.0792 84.1689 20.8651C84.2037 20.6214 84.2196 20.3728 84.2203 20.1264C84.2246 18.4309 84.2225 16.7354 84.2225 15.0231C85.1034 15.0231 85.977 15.0231 86.8833 15.0231C86.8833 15.1051 86.8833 15.1963 86.8833 15.2875C86.8833 17.0616 86.87 18.8357 86.8881 20.6096C86.8995 21.735 87.7907 22.7329 88.883 22.9075C89.5976 23.0218 90.242 22.8978 90.818 22.4789C91.4238 22.0383 91.7868 21.4332 91.7924 20.6586C91.8028 19.2308 91.7954 17.8029 91.7954 16.375C91.7954 16.2903 91.7954 16.2056 91.7954 16.109C92.7025 16.109 93.5931 16.109 94.5073 16.109C94.5073 16.1974 94.5073 16.2812 94.5073 16.365C94.5073 17.7929 94.5017 19.2208 94.5091 20.6486C94.5149 21.7463 95.3987 22.7569 96.4407 22.8835C97.2283 22.9791 98.0325 22.9336 98.8546 22.9509ZM111.57 16.4098C111.25 16.7956 111.004 17.2305 110.991 17.7365C110.965 18.7567 110.983 19.778 110.983 20.7988C110.983 20.842 110.977 20.8869 110.986 20.9282C111.256 22.1537 112.237 22.957 113.431 22.952C114.642 22.9469 115.853 22.9509 117.063 22.9509C117.146 22.9509 117.228 22.9509 117.328 22.9509C117.328 22.8951 117.328 22.8625 117.328 22.8299C117.328 21.117 117.329 19.4041 117.326 17.6911C117.326 17.5926 117.301 17.4921 117.275 17.3959C116.968 16.2513 115.913 15.5351 114.817 15.575C114.383 15.5907 113.948 15.5859 113.513 15.5757C112.754 15.5579 112.116 15.8231 111.57 16.4098Z" fill="white"/>
<path d="M52.4896 22.951C52.5897 22.951 52.6653 22.951 52.7838 22.951C52.7342 22.7997 52.6867 22.679 52.655 22.5543C52.5318 22.0707 52.3475 21.5912 52.3083 21.1001C52.2391 20.2349 52.2155 19.3604 52.2533 18.4933C52.3047 17.3134 52.726 16.2643 53.4994 15.361C54.3036 14.4217 55.3116 13.838 56.5089 13.6744C57.3025 13.5661 58.118 13.6277 58.9234 13.603C59.8496 13.5747 60.7192 13.7923 61.5273 14.2383C62.3272 14.6798 62.9619 15.3096 63.4275 16.1055C63.9127 16.9349 64.1281 17.8304 64.1195 18.8006C64.1004 20.9806 64.1135 23.161 64.1135 25.3412C64.1135 25.4351 64.1135 25.5289 64.1135 25.6395C64.037 25.6438 63.9718 25.6506 63.9067 25.6506C58.2201 25.6511 52.5335 25.6615 46.847 25.6403C45.9541 25.637 45.0759 25.4255 44.2128 25.1658C42.8873 24.7669 41.6801 24.1333 40.5887 23.2877C39.7786 22.6601 39.0626 21.9249 38.4517 21.0872C38.1246 20.6387 37.7559 20.2214 37.3867 19.7664C37.7241 19.4807 38.0592 19.191 38.401 18.9096C38.7042 18.66 39.0207 18.4267 39.3192 18.1718C39.4347 18.0731 39.4813 18.0352 39.6008 18.1852C40.1999 18.9364 40.7693 19.721 41.4385 20.4036C42.6288 21.6178 44.0632 22.4334 45.7414 22.7375C46.364 22.8503 47 22.9304 47.6314 22.9415C49.2422 22.9699 50.8538 22.951 52.4896 22.951ZM55.1558 21.521C55.5983 22.4211 56.3157 22.9211 57.3044 22.9442C58.5136 22.9725 59.724 22.951 60.9339 22.951C61.1017 22.951 61.2695 22.951 61.4528 22.951C61.4528 22.8421 61.4528 22.7575 61.4528 22.6728C61.4528 21.3153 61.4588 19.9578 61.447 18.6004C61.445 18.3704 61.4005 18.1274 61.3174 17.9137C60.9382 16.9388 60.2021 16.3943 59.1915 16.3186C58.4684 16.2644 57.735 16.3207 57.0079 16.3608C55.9511 16.419 54.8969 17.5224 54.9508 18.7148C54.973 19.2066 54.9625 19.7005 54.9521 20.1931C54.9427 20.6369 54.9554 21.0745 55.1558 21.521Z" fill="white"/>
<path d="M14.8761 46.305C14.565 46.8288 14.2719 47.3416 13.9651 47.8458C13.9245 47.9125 13.8153 47.9695 13.7356 47.9728C13.395 47.9866 13.053 47.9902 12.7129 47.9713C12.6173 47.966 12.4885 47.8955 12.4392 47.8145C11.566 46.3787 10.7009 44.9379 9.83809 43.4956C9.26635 42.5399 8.70111 41.5801 8.10385 40.573C8.10385 43.6181 8.10385 46.6102 8.10385 49.6212C7.14008 49.6212 6.19825 49.6212 5.23779 49.6212C5.23779 44.7006 5.23779 39.7642 5.23779 34.7898C5.36183 34.7898 5.50235 34.7898 5.64287 34.7898C6.24831 34.7898 6.85382 34.7949 7.45914 34.7862C7.61139 34.784 7.69652 34.8282 7.77692 34.966C8.45998 36.1369 9.15337 37.3016 9.84235 38.4689C10.375 39.3714 10.9064 40.2747 11.4372 41.1783C12.0378 42.2007 12.6371 43.2238 13.2504 44.2695C13.6259 43.622 13.9858 42.9985 14.3486 42.3768C14.8976 41.4356 15.4519 40.4975 15.998 39.5546C16.5482 38.6047 17.0912 37.6506 17.6373 36.6983C17.9847 36.0924 18.3303 35.4854 18.683 34.8826C18.7101 34.8362 18.7873 34.7941 18.8415 34.7937C19.6152 34.788 20.389 34.7898 21.1731 34.7898C21.1731 39.746 21.1731 44.6823 21.1731 49.6294C20.2397 49.6294 19.3151 49.6294 18.3715 49.6294C18.3715 46.5722 18.3715 43.5238 18.3715 40.3947C17.1843 42.4054 16.0371 44.3483 14.8761 46.305Z" fill="white"/>
<path d="M114.992 34.8271C115.588 35.0473 116.181 35.2224 116.742 35.4711C117.453 35.7865 118.078 36.2592 118.623 36.8153C119.655 37.869 120.324 39.1238 120.614 40.596C120.767 41.3707 120.804 42.1479 120.743 42.9186C120.628 44.3998 120.134 45.7475 119.213 46.9307C118.136 48.3143 116.718 49.1288 115.072 49.5843C114.86 49.643 114.638 49.6636 114.412 49.7032C114.412 50.6175 114.412 51.5155 114.412 52.4287C113.425 52.4287 112.45 52.4287 111.453 52.4287C111.453 51.5301 111.453 50.6261 111.453 49.7156C110.556 49.5626 109.71 49.3058 108.922 48.8753C107.755 48.2373 106.803 47.3691 106.118 46.2039C105.613 45.3451 105.258 44.436 105.154 43.4398C105.096 42.8801 105.027 42.3125 105.058 41.754C105.143 40.2514 105.591 38.8669 106.498 37.6519C107.647 36.1123 109.164 35.1858 111.017 34.7837C111.813 34.6109 112.615 34.5448 113.421 34.5909C113.941 34.6207 114.456 34.7371 114.992 34.8271ZM113.606 37.2821C113.079 37.2133 112.559 37.2433 112.032 37.3274C110.832 37.5191 109.839 38.0751 109.087 39.0337C108.168 40.2046 107.872 41.5674 108.075 43.0279C108.259 44.3433 108.889 45.4234 109.948 46.2213C110.405 46.5657 110.914 46.8135 111.504 46.9518C111.504 45.8952 111.504 44.862 111.504 43.8429C112.455 43.8429 113.38 43.8429 114.312 43.8429C114.312 44.8979 114.312 45.9348 114.312 46.9718C114.361 46.96 114.402 46.9508 114.442 46.94C114.49 46.9273 114.537 46.9155 114.584 46.8994C115.435 46.6041 116.149 46.1206 116.726 45.4063C117.368 44.6103 117.701 43.6949 117.779 42.6935C117.867 41.5788 117.677 40.5102 117.079 39.5376C116.651 38.8413 116.106 38.2832 115.395 37.8849C114.848 37.5779 114.262 37.3983 113.606 37.2821Z" fill="white"/>
<path d="M96.5539 39.8276C96.6161 40.8083 96.4719 41.729 96.0369 42.5806C95.6216 43.3935 95.0119 44.0306 94.2094 44.4666C94.0296 44.5642 93.8517 44.6655 93.637 44.7851C94.7373 46.3825 95.8409 47.9846 96.9811 49.6399C96.6924 49.6399 96.4822 49.6399 96.272 49.6399C95.4962 49.6399 94.7202 49.6468 93.9446 49.6325C93.8298 49.6303 93.6737 49.5592 93.6096 49.4675C93.0128 48.6137 92.4335 47.7473 91.8456 46.887C91.5253 46.4183 91.2009 45.9523 90.8703 45.491C90.8306 45.4356 90.7404 45.387 90.6734 45.3866C89.5402 45.3803 88.407 45.3821 87.2537 45.3821C87.2537 46.7955 87.2537 48.2011 87.2537 49.6233C86.2581 49.6233 85.2823 49.6233 84.29 49.6233C84.29 44.6966 84.29 39.7609 84.29 34.8009C84.3501 34.7976 84.4229 34.79 84.4957 34.7899C86.593 34.7893 88.6908 34.762 90.7875 34.7996C92.074 34.8226 93.3235 35.112 94.4147 35.8379C95.4916 36.5543 96.2244 37.548 96.4493 38.8693C96.5016 39.1771 96.5199 39.4908 96.5539 39.8276ZM90.3865 37.3857C89.3416 37.3857 88.2967 37.3857 87.2556 37.3857C87.2556 39.2365 87.2556 41.0571 87.2556 42.8897C88.0955 42.8897 88.9212 42.8919 89.7468 42.889C90.4087 42.8867 91.0734 42.8712 91.7115 42.6768C92.3946 42.4687 92.9752 42.1084 93.3145 41.4273C93.6482 40.7572 93.6659 40.0486 93.5175 39.3473C93.4078 38.829 93.1388 38.3755 92.6876 38.0462C92.0098 37.5516 91.2454 37.4011 90.3865 37.3857Z" fill="white"/>
<path d="M62.8341 35.5689C62.8341 35.3018 62.8341 35.0606 62.8341 34.8047C63.821 34.8047 64.7969 34.8047 65.7873 34.8047C65.7873 39.7377 65.7873 44.674 65.7873 49.6253C64.8152 49.6253 63.8394 49.6253 62.8432 49.6253C62.8432 47.5657 62.8432 45.5024 62.8432 43.4242C60.4657 43.4242 58.1084 43.4242 55.7308 43.4242C55.7308 45.4839 55.7308 47.5472 55.7308 49.6254C54.7348 49.6254 53.759 49.6254 52.7686 49.6254C52.7686 44.6924 52.7686 39.7561 52.7686 34.8048C53.7406 34.8048 54.7165 34.8048 55.7127 34.8048C55.7127 36.7951 55.7127 38.7893 55.7127 40.7982C58.0902 40.7982 60.4475 40.7982 62.8341 40.7982C62.8341 39.0662 62.8341 37.3305 62.8341 35.5689Z" fill="white"/>
<path d="M26.1623 41.3449C26.3448 40.9322 26.5092 40.5326 26.6842 40.1379C27.2361 38.8928 27.7933 37.65 28.3459 36.4051C28.5581 35.9272 28.7561 35.4425 28.9786 34.9697C29.0174 34.8872 29.1455 34.7986 29.2337 34.7972C30.0605 34.7841 30.8877 34.7849 31.7145 34.7965C31.7965 34.7977 31.918 34.8783 31.9523 34.9541C32.4136 35.9755 32.8605 37.0035 33.3155 38.0278C33.5888 38.643 33.8736 39.2528 34.1464 39.8682C34.6581 41.022 35.1626 42.179 35.6746 43.3327C35.9611 43.9783 36.2609 44.6179 36.5473 45.2635C37.1298 46.5767 37.7068 47.8924 38.2877 49.2063C38.3476 49.3417 38.4185 49.4721 38.5016 49.6399C38.396 49.6399 38.3234 49.6399 38.2509 49.6399C37.3642 49.6399 36.4774 49.6366 35.5908 49.6432C35.4414 49.6443 35.3566 49.6177 35.2921 49.4599C34.9467 48.6146 34.5866 47.7754 34.2295 46.9351C34.1513 46.7514 34.0749 46.5652 33.9757 46.3932C33.9398 46.3308 33.84 46.2703 33.7691 46.2701C31.5101 46.2637 29.251 46.2648 26.981 46.2648C26.6335 47.0946 26.2874 47.9207 25.9416 48.7469C25.8328 49.0069 25.7299 49.2697 25.6116 49.5252C25.5875 49.5774 25.5066 49.6347 25.4516 49.6351C24.4802 49.6417 23.5087 49.6399 22.479 49.6399C23.7116 46.8591 24.9303 44.1097 26.1623 41.3449ZM31.4428 43.8244C31.9251 43.8244 32.4074 43.8244 32.9156 43.8244C32.0922 41.8891 31.2811 39.9828 30.4558 38.0434C29.6376 39.9814 28.8328 41.8877 28.0152 43.8244C29.1649 43.8244 30.2782 43.8244 31.4428 43.8244Z" fill="white"/>
<path d="M67.2716 49.1058C67.6782 48.1921 68.07 47.2935 68.467 46.3973C68.9412 45.3272 69.4204 44.2595 69.8964 43.1902C70.5178 41.7943 71.1389 40.3982 71.7587 39.0016C72.2136 37.9766 72.666 36.9506 73.1198 35.9251C73.2641 35.5988 73.4004 35.2683 73.5607 34.9502C73.5985 34.875 73.7175 34.7977 73.8001 34.7966C74.627 34.7853 75.4541 34.7852 76.281 34.7967C76.3631 34.7979 76.4846 34.8781 76.519 34.9538C76.9961 36.0048 77.4604 37.0619 77.9294 38.1167C78.5671 39.5508 79.2063 40.9843 79.8448 42.4181C80.3146 43.4729 80.7853 44.5273 81.2538 45.5827C81.8065 46.8274 82.3577 48.0727 82.9078 49.3185C82.9474 49.4082 82.9732 49.5041 83.014 49.6218C82.9373 49.6294 82.8833 49.6394 82.8292 49.6395C81.9254 49.6405 81.0216 49.635 80.1179 49.6449C79.9512 49.6468 79.88 49.5792 79.8218 49.4386C79.5266 48.7254 79.2266 48.0142 78.9258 47.3034C78.8028 47.0126 78.6449 46.7332 78.5576 46.4322C78.5029 46.2435 78.4008 46.2655 78.2777 46.2654C77.0159 46.2649 75.7541 46.2651 74.4922 46.2651C73.5799 46.2651 72.6676 46.2684 71.7554 46.262C71.5932 46.2608 71.5198 46.2949 71.4487 46.4696C71.0358 47.4842 70.5963 48.4876 70.1672 49.4954C70.1486 49.539 70.1426 49.5883 70.131 49.6343C69.1144 49.6343 68.1093 49.6343 67.0601 49.6343C67.1314 49.4508 67.1952 49.2863 67.2716 49.1058ZM74.5027 39.2328C73.8595 40.7605 73.2163 42.2881 72.5705 43.8219C74.2042 43.8219 75.8234 43.8219 77.4687 43.8219C76.6548 41.9074 75.846 40.0047 75.0088 38.0355C74.8299 38.4702 74.6794 38.8358 74.5027 39.2328Z" fill="white"/>
<path d="M46.4635 44.1349C45.895 43.9616 45.3489 43.7826 44.7984 43.6184C43.7358 43.3016 42.6456 43.0601 41.6137 42.6623C40.5935 42.269 39.7446 41.585 39.3972 40.468C38.9546 39.0451 39.1383 37.6915 40.0537 36.5037C40.5079 35.9143 41.1184 35.4984 41.8084 35.1967C42.5956 34.8524 43.4112 34.7006 44.2595 34.6244C45.2984 34.531 46.3129 34.6225 47.3288 34.8348C48.059 34.9873 48.757 35.2175 49.4159 35.5687C49.6265 35.6809 49.8285 35.8096 50.0597 35.9457C49.7396 36.746 49.4239 37.5353 49.1259 38.2804C48.4723 38.0089 47.8477 37.7107 47.1972 37.4922C46.7235 37.333 46.2171 37.2697 45.7224 37.1801C44.9668 37.0433 44.2218 37.1352 43.489 37.336C42.8503 37.511 42.208 37.9878 42.1147 38.8157C42.0668 39.24 42.2928 39.7739 42.8463 40.0947C43.5293 40.4906 44.2798 40.6679 45.0248 40.8587C46.0997 41.1341 47.1916 41.3601 48.2081 41.8147C48.6616 42.0174 49.0628 42.3507 49.468 42.652C49.912 42.982 50.2175 43.4312 50.393 43.9601C50.6063 44.6032 50.6507 45.2595 50.563 45.9373C50.4665 46.6822 50.1936 47.3353 49.7368 47.9194C49.4313 48.3099 49.0497 48.6026 48.638 48.8678C47.8863 49.3521 47.0543 49.6115 46.1873 49.7327C45.5635 49.8199 44.925 49.861 44.2962 49.837C43.1842 49.7945 42.0888 49.6065 41.0349 49.2244C40.2787 48.9502 39.551 48.6194 38.9449 48.0645C38.9157 48.0378 38.8754 48.0238 38.8276 47.9966C39.175 47.2071 39.5212 46.4201 39.8751 45.6157C40.167 45.8096 40.4344 45.9877 40.7024 46.1649C41.3437 46.589 42.0582 46.8411 42.7895 47.0356C43.204 47.1459 43.6364 47.1918 44.0631 47.2479C44.3379 47.284 44.6196 47.3194 44.8936 47.2968C45.6002 47.2385 46.2932 47.1569 46.9478 46.8034C47.8023 46.342 47.9356 44.9276 47.0641 44.462C46.8685 44.3575 46.6772 44.2448 46.4635 44.1349Z" fill="white"/>
<path d="M138.429 32.8827C139.193 32.58 139.94 32.2886 140.686 31.9942C141.961 31.491 143.235 30.9863 144.509 30.4815C146.054 29.869 147.599 29.255 149.145 28.6431C150.521 28.0989 151.896 27.5565 153.272 27.0142C153.295 27.0052 153.321 27.006 153.403 26.9937C153.56 28.2922 153.978 29.5012 154.714 30.6226C154.481 30.7209 154.277 30.8118 154.07 30.8939C152.997 31.318 151.924 31.7388 150.852 32.1625C149.616 32.6506 148.382 33.1407 147.147 33.6298C145.865 34.1374 144.583 34.6453 143.301 35.1524C141.934 35.6933 140.566 36.2342 139.198 36.7736C137.8 37.3251 136.4 37.8739 135.001 38.4255C134.48 38.6309 133.959 38.8364 133.441 39.0502C133.084 39.1979 133.097 39.2003 132.963 38.8486C132.551 37.7679 132.13 36.6905 131.698 35.5749C131.938 35.4705 132.177 35.358 132.422 35.2612C133.463 34.8497 134.507 34.445 135.548 34.0337C136.503 33.6561 137.457 33.2732 138.429 32.8827Z" fill="white"/>
<path d="M144.433 43.2417C145.035 42.5969 145.626 41.9676 146.211 41.3327C146.871 40.6172 147.525 39.8967 148.181 39.1784C148.838 38.4603 149.495 37.7423 150.151 37.0241C150.808 36.3059 151.464 35.5872 152.121 34.8693C152.795 34.1324 153.472 33.3983 154.144 32.6591C154.522 32.2436 154.891 31.8202 155.291 31.3696C156.179 32.3995 157.242 33.1267 158.485 33.622C158.358 33.7817 158.252 33.9333 158.127 34.0679C157.53 34.7148 156.925 35.3551 156.328 36.0018C155.632 36.7542 154.941 37.5107 154.249 38.2659C153.805 38.7503 153.361 39.2359 152.917 39.7205C152.231 40.4696 151.544 41.2181 150.858 41.9672C150.419 42.4455 149.982 42.925 149.544 43.4034C148.858 44.1525 148.171 44.9009 147.484 45.6499C147.04 46.1345 146.597 46.6199 146.153 47.1046C145.472 47.8474 144.791 48.5898 144.111 49.3326C143.667 49.8173 143.223 50.3022 142.78 50.7876C142.723 50.8496 142.671 50.9156 142.586 51.0154C141.658 50.1349 140.726 49.2517 139.78 48.3545C141.329 46.652 142.875 44.9533 144.433 43.2417Z" fill="white"/>
<path d="M139.334 20.8217C140.069 20.8899 140.781 20.9601 141.492 21.0257C141.92 21.0652 142.349 21.0956 142.777 21.1337C143.531 21.2008 144.285 21.2736 145.039 21.3382C145.518 21.3792 145.998 21.4033 146.477 21.4463C147.172 21.5088 147.866 21.585 148.56 21.6489C149.014 21.6906 149.468 21.7167 149.922 21.7573C150.642 21.8219 151.361 21.8953 152.082 21.9599C152.535 22.0006 152.989 22.0332 153.443 22.0675C153.704 22.0872 153.965 22.0985 154.226 22.1233C154.294 22.1299 154.36 22.1724 154.431 22.2002C153.743 23.3711 153.418 24.6296 153.363 25.9493C152.961 25.9163 152.61 25.8903 152.259 25.8578C151.547 25.7919 150.836 25.7202 150.124 25.6554C149.68 25.6149 149.234 25.5859 148.789 25.5462C148.052 25.4803 147.315 25.4068 146.578 25.3428C146.099 25.3012 145.618 25.2764 145.14 25.234C144.428 25.1709 143.717 25.0968 143.005 25.0316C142.569 24.9916 142.132 24.9616 141.695 24.9233C140.932 24.8564 140.17 24.7838 139.407 24.719C138.928 24.6783 138.448 24.6533 137.969 24.6108C137.257 24.5478 136.546 24.472 135.834 24.4084C135.364 24.3664 134.893 24.3395 134.422 24.2999C133.661 24.2358 132.9 24.1668 132.106 24.097C132.229 22.7836 132.349 21.4978 132.468 20.2183C133.096 20.2654 133.69 20.3064 134.283 20.3554C135.08 20.4213 135.877 20.4925 136.674 20.563C137.244 20.6134 137.813 20.6642 138.383 20.7189C138.692 20.7487 139.001 20.7872 139.334 20.8217Z" fill="white"/>
<path d="M154.441 50.7992C154.663 50.0423 154.875 49.3039 155.085 48.5652C155.427 47.3634 155.769 46.1614 156.111 44.9596C156.599 43.2462 157.088 41.5331 157.575 39.8194C158.096 37.984 158.616 36.148 159.137 34.3127C159.16 34.2316 159.219 34.1569 159.226 34.0759C159.246 33.8749 159.379 33.8996 159.507 33.9133C160.115 33.9787 160.725 34.1075 161.332 34.0973C161.92 34.0875 162.506 33.9364 163.093 33.8457C163.163 33.8349 163.232 33.8133 163.337 33.7881C163.24 34.1527 163.159 34.4769 163.067 34.7977C162.593 36.4447 162.113 38.0898 161.642 39.7374C161.107 41.6043 160.583 43.4741 160.048 45.3408C159.715 46.5013 159.367 47.6573 159.033 48.8173C158.535 50.5452 158.043 52.275 157.548 54.0038C157.444 54.3673 157.337 54.7299 157.228 55.1057C156.585 54.9157 155.97 54.7336 155.355 54.5527C154.843 54.4021 154.332 54.2494 153.819 54.1043C153.538 54.0251 153.524 53.9986 153.605 53.7169C153.882 52.7512 154.155 51.7841 154.441 50.7992Z" fill="white"/>
<path d="M142.617 13.1755C141.687 12.5553 140.771 11.9482 139.826 11.322C140.521 10.2504 141.217 9.17719 141.939 8.06543C142.253 8.26452 142.565 8.45362 142.869 8.65571C144.371 9.65574 145.869 10.6621 147.372 11.6606C148.582 12.4638 149.798 13.2564 151.008 14.0584C152.645 15.1432 154.278 16.2341 155.915 17.319C156.614 17.7825 157.319 18.2371 158.021 18.6969C158.054 18.7189 158.081 18.7524 158.145 18.8128C156.848 19.377 155.841 20.2778 154.949 21.3671C150.836 18.6363 146.733 15.9125 142.617 13.1755Z" fill="white"/>
<path d="M171.365 49.7961C170.458 50.004 169.573 50.2114 168.688 50.4193C168.453 50.4746 168.219 50.5315 167.947 50.5966C166.607 44.9169 165.271 39.2557 163.932 33.5789C165.253 33.0637 166.369 32.2673 167.316 31.0884C168.784 37.3339 170.239 43.5212 171.695 49.7188C171.563 49.7518 171.475 49.7738 171.365 49.7961Z" fill="white"/>
<path d="M153.722 6.10659C153.613 5.83852 153.512 5.58818 153.393 5.28886C154.553 4.77499 155.719 4.25841 156.917 3.72754C159.013 8.62973 161.107 13.5277 163.214 18.4576C162.794 18.3832 162.424 18.2803 162.049 18.2596C161.456 18.2268 160.857 18.2209 160.264 18.2582C159.894 18.2815 159.531 18.4139 159.161 18.4753C159.094 18.4866 158.967 18.4106 158.938 18.3435C158.536 17.422 158.145 16.4951 157.753 15.5693C157.453 14.8616 157.153 14.1538 156.854 13.4455C156.401 12.3715 155.95 11.2962 155.495 10.223C155.152 9.41382 154.804 8.60674 154.457 7.79938C154.217 7.24045 153.974 6.68265 153.722 6.10659Z" fill="white"/>
<path d="M171.72 34.1666C170.953 33.5278 170.204 32.8935 169.456 32.2576C168.914 31.7971 168.375 31.3339 167.833 30.8733C167.755 30.8068 167.671 30.7482 167.591 30.6877C168.412 29.4699 168.871 28.1773 169.017 26.7222C172.822 29.9737 176.596 33.1992 180.38 36.4334C180.041 36.8412 179.71 37.2368 179.381 37.6342C178.953 38.1502 178.526 38.6657 178.103 39.1858C177.962 39.3593 177.829 39.3795 177.663 39.2381C176.838 38.5368 176.009 37.84 175.186 37.1362C174.587 36.6241 173.997 36.1014 173.4 35.5873C172.848 35.1123 172.292 34.6425 171.72 34.1666Z" fill="white"/>
<path d="M168.533 18.2577C168.137 19.2575 167.752 20.2396 167.354 21.2534C166.471 20.1624 165.423 19.3354 164.15 18.8179C165.521 15.2765 166.889 11.7433 168.263 8.19238C169.473 8.68358 170.669 9.16927 171.881 9.6612C171.567 10.4654 171.26 11.2485 170.955 12.0325C170.356 13.5745 169.758 15.1171 169.159 16.6593C168.954 17.1864 168.748 17.7131 168.533 18.2577Z" fill="white"/>
<path d="M70.4583 21.5488C70.4583 22.5785 70.4563 23.5823 70.4587 24.586C70.4623 26.051 70.0368 27.3581 69.115 28.5005C68.5824 29.1606 67.9639 29.7125 67.2022 30.06C66.668 30.3037 66.0893 30.4474 65.5305 30.6357C65.4842 30.6513 65.4379 30.6669 65.3509 30.6962C65.2795 30.4021 65.2031 30.1093 65.138 29.814C65.0227 29.2914 64.9183 28.7664 64.8006 28.2444C64.7667 28.0937 64.7657 28.0152 64.9541 27.9821C65.689 27.8528 66.3454 27.5388 66.8578 26.9846C67.3597 26.4418 67.6958 25.8018 67.7453 25.0388C67.769 24.6716 67.7948 24.3036 67.7953 23.9359C67.7993 20.9074 67.7975 17.8789 67.7975 14.8504C67.7975 14.7564 67.7975 14.6624 67.7975 14.5537C68.6823 14.5537 69.5558 14.5537 70.4583 14.5537C70.4583 16.8748 70.4583 19.1988 70.4583 21.5488Z" fill="white"/>
<path d="M173.974 25.028C173.428 25.1318 172.904 25.2379 172.379 25.338C171.764 25.4555 171.148 25.5687 170.533 25.682C170.033 25.774 169.533 25.8634 169.077 25.9461C168.952 25.2911 168.867 24.6321 168.694 23.9979C168.524 23.3746 168.264 22.7765 168.037 22.1487C168.319 22.0918 168.634 22.0233 168.951 21.9657C169.552 21.8565 170.154 21.7574 170.753 21.6471C171.476 21.5143 172.197 21.3749 172.919 21.237C173.812 21.0661 174.705 20.888 175.6 20.7239C176.684 20.525 177.774 20.3513 178.855 20.1357C179.134 20.0801 179.206 20.1162 179.255 20.4092C179.435 21.4856 179.652 22.5555 179.856 23.6276C179.873 23.7178 179.896 23.807 179.92 23.9185C177.933 24.2906 175.965 24.6591 173.974 25.028Z" fill="white"/>
<path d="M99.7266 42.89C99.7266 40.1826 99.7266 37.5011 99.7266 34.8047C100.696 34.8047 101.655 34.8047 102.629 34.8047C102.629 39.7375 102.629 44.6739 102.629 49.6252C101.673 49.6252 100.715 49.6252 99.7266 49.6252C99.7266 47.3912 99.7266 45.1535 99.7266 42.89Z" fill="white"/>
<path d="M92.9569 10.4782C93.5068 9.92116 94.0457 9.3792 94.5776 8.83025C94.6887 8.71559 94.764 8.68823 94.8862 8.81934C95.4869 9.46367 96.0952 10.1006 96.6834 10.7218C96.0754 11.3472 95.4624 11.9755 94.8526 12.6071C94.7343 12.7296 94.6661 12.648 94.582 12.5649C94.047 12.036 93.5096 11.5096 92.9728 10.9826C92.9432 10.9535 92.9121 10.9261 92.8607 10.8785C92.3203 11.4296 91.7811 11.968 91.257 12.5211C91.1048 12.6817 91.0179 12.694 90.8542 12.5284C90.2537 11.9208 89.6355 11.3314 89.0332 10.7443C89.7044 10.0634 90.3612 9.39716 91.0545 8.69385C91.2704 8.92307 91.4891 9.16126 91.7142 9.39301C92.0554 9.74414 92.3985 10.0934 92.7479 10.436C92.7906 10.4779 92.8772 10.4736 92.9569 10.4782Z" fill="white"/>
<path d="M60.4874 11.3709C59.8211 10.7618 59.1737 10.1533 58.5118 9.53132C57.9513 10.1014 57.3025 10.7613 56.7243 11.3494C56.0352 10.7159 55.3458 10.0822 54.6729 9.46351C55.3635 8.76281 56.0112 8.10569 56.6659 7.44147C57.2966 8.05866 57.9487 8.69679 58.6153 9.3492C59.2504 8.70384 59.8843 8.05976 60.5043 7.42969C61.1632 8.09848 61.8108 8.75573 62.4522 9.40677C61.8304 10.0485 61.1932 10.7063 60.5549 11.3631C60.5455 11.3727 60.5227 11.369 60.4874 11.3709Z" fill="white"/>
<path d="M93.343 5.69873C93.7228 6.06726 94.0876 6.42512 94.458 6.77687C94.5629 6.87643 94.5965 6.9511 94.4768 7.07085C93.9443 7.60353 93.4189 8.14362 92.8645 8.70797C92.2973 8.10869 91.7416 7.52167 91.208 6.9579C91.7667 6.39066 92.3242 5.82469 92.898 5.24219C93.0337 5.38143 93.1819 5.53359 93.343 5.69873Z" fill="white"/>
</svg>
