<svg width="88" height="25" viewBox="0 0 88 25" fill="none" xmlns="http://www.w3.org/2000/svg">
<g clip-path="url(#clip0_473_28)">
<path d="M0.115271 0.0761966C3.62114 0.054448 7.13061 0.0870662 10.6347 0.0544434C11.0565 1.52972 11.4098 3.02131 11.7486 4.51834C7.66817 5.68738 3.75589 7.38405 0.109863 9.56583C0.131493 6.40322 0.126086 3.24062 0.115271 0.0761966Z" fill="white"/>
<path d="M13.9605 3.93096C13.7063 2.63148 13.3909 1.3465 13.0898 0.0615234C16.9003 0.0887092 20.718 0.0452109 24.5285 0.0887081C24.5285 0.994899 24.5393 1.90109 24.5502 2.80728C20.992 2.81634 17.4501 3.25675 13.9605 3.93096Z" fill="white"/>
<path d="M62.545 1.41377C62.3395 -0.851711 65.2217 0.346278 66.5573 0.103418C66.8944 6.00091 66.6096 11.9238 66.6997 17.8358C66.6042 20.0106 66.9052 22.2417 66.5681 24.4057C65.2902 24.4528 63.7707 24.8243 62.6351 24.2045C62.4188 16.6215 62.5936 9.00946 62.545 1.41377Z" fill="white"/>
<path d="M14.3354 6.27623C17.6814 5.523 21.1037 5.16655 24.5322 5.21417C24.4962 9.99161 24.5106 14.7672 24.5214 19.5447C21.1438 19.5667 17.7737 19.2197 14.4706 18.5098C14.9645 14.4501 14.9789 10.3251 14.3354 6.27623Z" fill="white"/>
<path d="M30.8839 6.56272C34.0617 4.80652 38.3534 5.60759 40.7976 8.28811C40.019 9.3264 39.0603 10.2148 37.9677 10.9106C36.4482 9.2976 33.2704 8.6234 32.0879 10.9849C33.3641 13.564 36.7384 13.225 38.8437 14.7728C41.6196 16.259 41.9999 20.3187 40.0045 22.6059C39.1033 23.822 37.6288 24.2824 36.3148 24.8714C33.4308 25.1269 30.2656 24.3567 28.2288 22.1746C26.7669 20.9059 29.2057 19.7641 29.9339 18.8199C31.385 20.1683 33.1586 21.3934 35.2657 20.9585C36.7907 21.118 38.1696 18.9522 36.6753 17.9499C34.5646 16.5906 31.7977 16.4746 29.9195 14.6876C27.4267 12.5816 28.0449 8.07062 30.8839 6.56272Z" fill="white"/>
<path d="M45.8017 7.7987C49.1742 4.63609 55.1747 4.96957 58.1164 8.57802C59.9189 10.7964 60.6183 13.8593 60.1478 16.6667C55.6921 16.7138 51.2381 16.6667 46.7877 16.6884C47.3284 18.2851 48.2874 19.8565 49.8862 20.5524C52.0762 21.5184 54.6484 20.866 56.4527 19.3907C57.2927 20.161 57.9578 21.0889 58.6157 22.0186C56.6726 24.3856 53.3326 25.0997 50.4071 24.875C47.9215 24.1373 45.4556 22.8324 44.12 20.5017C41.6361 16.5833 42.3337 10.9051 45.8017 7.7987ZM46.7354 13.3138C49.924 13.3718 53.1073 13.3935 56.2887 13.3029C55.6019 11.2603 53.9562 9.19967 51.5914 9.37547C49.2121 9.20511 47.5177 11.2767 46.7408 13.3138H46.7354Z" fill="white"/>
<path d="M70.5894 9.87941C72.5722 6.7748 76.6062 5.02222 80.1697 6.12234C81.637 6.5265 82.5923 7.75348 83.4431 8.93515C83.7495 7.9909 84.0505 7.04122 84.3768 6.10059C85.5863 6.14771 86.7939 6.20752 87.998 6.3652V24.3676C86.7363 24.4636 85.4745 24.5053 84.2236 24.5325C83.9388 23.7786 83.6588 23.0246 83.3836 22.2707C81.7253 24.0432 79.3082 25.3227 76.8387 24.924C74.6487 24.489 72.547 23.3527 71.1374 21.591C68.4949 18.3505 68.284 13.3574 70.5894 9.87941ZM76.1159 10.2419C73.4392 11.4725 72.5001 14.965 73.4969 17.6092C74.3044 20.0142 77.0803 21.5058 79.5136 20.741C82.4697 20.0306 84.1479 16.4783 83.1565 13.66C82.4715 10.7022 78.8665 8.81916 76.1159 10.2509V10.2419Z" fill="white"/>
<path d="M0 12.4003C3.75488 9.95872 7.84314 8.07953 12.1363 6.82178C12.5274 10.5208 12.6157 14.2525 12.1939 17.957C7.88595 16.6902 3.82671 14.7365 0 12.4003Z" fill="white"/>
<path d="M0.115452 15.1931C3.8274 17.3649 7.78435 19.0826 11.902 20.3095C11.5794 21.705 11.2531 23.1005 10.9088 24.4979C7.30383 24.4979 3.69883 24.5251 0.0830078 24.4816C0.162318 21.3806 0.110044 18.2869 0.115452 15.1931Z" fill="white"/>
<path d="M14.1137 20.8369C17.5385 21.5854 21.039 21.8301 24.534 21.9787C24.534 22.8178 24.5448 23.6552 24.5556 24.4943C20.7866 24.5269 17.0176 24.5052 13.2485 24.5052C13.582 23.2873 13.8776 22.0603 14.1137 20.8369Z" fill="white"/>
</g>
<defs>
<clipPath id="clip0_473_28">
<rect width="88" height="25" fill="white"/>
</clipPath>
</defs>
</svg>
