<svg width="93" height="67" viewBox="0 0 93 67" fill="none" xmlns="http://www.w3.org/2000/svg">
<path d="M12.5929 30.4098C10.6832 30.4098 8.88208 30.4098 6.97642 30.4098C6.9665 30.7081 6.93276 31.0018 6.95062 31.2915C7.08093 33.4247 7.21256 35.5573 7.36139 37.6891C7.54726 40.3469 7.7404 43.0046 7.9481 45.6604C8.13595 48.0654 8.21202 50.4837 8.77426 52.8464C9.18767 54.5841 9.781 56.2483 10.7196 57.7776C10.8043 57.9152 10.8711 58.064 10.9485 58.2122C10.4054 58.3815 8.9469 58.406 8.06849 58.322C4.64676 57.9959 1.75288 54.9181 1.57032 51.6691C1.41487 48.8989 1.15294 46.1353 0.948547 43.3678C0.740188 40.5447 0.543735 37.7202 0.343313 34.8958C0.228881 33.2904 0.0899741 31.6857 0.00795324 30.0784C-0.168656 26.6084 2.61807 23.6675 6.17407 23.5842C7.9223 23.5432 9.67252 23.5743 11.4214 23.5743C16.1138 23.5736 20.8062 23.5796 25.4986 23.5723C28.0134 23.5683 29.9945 24.62 31.5258 26.5727C32.3533 27.6277 32.8143 28.8421 32.9182 30.171C33.1239 32.7996 33.2806 35.4322 33.4797 38.0615C33.7509 41.6347 31.0939 44.1813 28.6326 44.6252C28.0895 44.7231 27.5306 44.7641 26.9783 44.7687C24.8404 44.7846 22.7006 44.7198 20.5648 44.7872C16.6331 44.9109 13.1915 41.5719 13.087 37.6131C13.0255 35.2345 12.7681 32.8605 12.5929 30.4098ZM19.9661 37.8201C20.0654 37.8737 20.1117 37.9213 20.1586 37.9213C21.932 37.9306 23.706 37.9603 25.4787 37.9292C26.2559 37.9153 26.6131 37.4298 26.5642 36.5673C26.4742 34.9904 26.3697 33.4141 26.2507 31.8385C26.1759 30.8523 25.6792 30.3913 24.6916 30.3893C21.3651 30.3813 18.038 30.386 14.7115 30.388C14.6057 30.388 14.5005 30.4078 14.2419 30.4329C17.8554 31.7069 19.8272 34.102 19.9661 37.8201Z" fill="white"/>
<path d="M33.2656 44.4889C33.5051 44.1006 33.646 43.7639 33.8801 43.5146C34.4483 42.91 35.0205 42.2968 35.6621 41.7749C37.458 40.3138 39.1672 38.7818 40.3168 36.7372C40.883 37.019 41.3949 37.3531 41.9559 37.529C42.4473 37.6831 42.995 37.7109 43.5169 37.7076C47.9024 37.6811 52.2878 37.6342 56.6727 37.5932C57.0894 37.5892 57.5074 37.611 57.9215 37.5766C58.5545 37.5244 58.9501 37.1288 58.9553 36.4945C58.9613 35.7781 58.8978 35.0618 58.8601 34.2455C53.5962 34.2455 48.4011 34.2455 43.0281 34.2455C44.0375 33.0192 44.0639 31.7512 43.9555 30.4263C43.6849 27.1077 43.46 23.7852 43.2212 20.4634C43.0016 17.4147 44.781 14.7047 47.5988 13.86C48.2014 13.6795 48.8502 13.5809 49.4793 13.5736C52.1721 13.5432 54.8656 13.5419 57.559 13.565C61.2936 13.5968 64.4898 16.6031 64.7557 20.3152C65.101 25.132 65.439 29.9487 65.7723 34.7661C65.8563 35.9838 65.9847 37.2056 65.9615 38.4226C65.9132 41.0003 64.6049 42.8134 62.3394 43.9597C61.5357 44.3665 60.6566 44.5352 59.7603 44.5358C51.0701 44.5425 42.3792 44.5398 33.689 44.5385C33.6069 44.5392 33.5249 44.5206 33.2656 44.4889ZM58.7073 32.4669C58.6736 31.9695 58.6412 31.472 58.6061 30.9753C58.3924 27.9577 58.1841 24.9395 57.9592 21.9226C57.8864 20.9482 57.438 20.5097 56.4775 20.4971C54.8398 20.4753 53.2013 20.476 51.5629 20.4965C50.5958 20.509 50.2168 20.941 50.2711 21.9146C50.3326 23.0232 50.41 24.1312 50.49 25.2385C50.5376 25.8966 50.6018 26.5534 50.6646 27.2784C54.5699 27.1441 57.1899 28.9572 58.7073 32.4669Z" fill="white"/>
<path d="M76.7899 44.5457C76.7899 45.067 76.7661 45.5049 76.7938 45.9394C76.9175 47.8497 77.0915 49.758 77.1828 51.6703C77.3296 54.7593 75.2507 57.472 72.2668 58.1261C71.7826 58.232 71.2766 58.2783 70.7799 58.2816C68.5316 58.2981 66.2826 58.2915 64.0336 58.2882C63.8822 58.2882 63.73 58.2512 63.5508 58.1043C63.7677 58.0183 63.9887 57.9416 64.2003 57.8444C65.2818 57.3456 66.3838 56.8853 67.4349 56.3296C69.2446 55.3725 70.1429 53.8267 70.0952 51.7801C70.047 49.7005 69.9676 47.6202 69.8545 45.5432C69.7473 43.576 69.5773 41.6128 69.4384 39.6476C69.2373 36.7968 69.0389 33.9452 68.8398 31.0943C68.6017 27.6891 68.3642 24.2846 68.1287 20.8794C68.1215 20.7736 68.1426 20.6651 68.1539 20.515C68.6956 20.4098 69.1785 20.5732 69.5634 20.8629C70.2454 21.3762 70.9055 21.9318 71.5035 22.5403C72.1041 23.1522 72.6035 23.8626 73.1724 24.5075C74.1857 25.6571 75.3433 26.6427 76.729 27.4457C75.7838 28.3896 75.6634 29.5253 75.7434 30.7166C75.8645 32.5165 75.9994 34.315 76.102 36.1155C76.1529 37.0104 76.8845 37.613 77.6749 37.5938C79.7003 37.5449 81.7277 37.5859 83.7544 37.5733C84.6427 37.568 85.0879 37.1004 85.0297 36.2114C84.8689 33.7468 84.6837 31.2842 84.5078 28.8202C84.3708 26.9106 84.2326 25.001 84.095 23.0907C84.0355 22.2658 83.9779 21.4403 83.9184 20.5924C84.4773 20.4224 84.8967 20.642 85.3068 20.851C86.2176 21.3153 86.8897 22.0555 87.5359 22.8235C88.0896 23.4816 88.6306 24.1517 89.2094 24.7873C90.1474 25.8172 91.2004 26.7161 92.473 27.4292C92.3884 27.5747 92.3368 27.6918 92.2601 27.7897C91.7792 28.4048 91.5404 29.108 91.5715 29.8806C91.6376 31.5163 91.7243 33.1508 91.8202 34.7853C91.8784 35.7821 91.9776 36.7769 92.0457 37.7737C92.2945 41.4131 89.4799 44.4783 85.7917 44.5325C83.0995 44.5722 80.4061 44.5424 77.7133 44.5438C77.4136 44.5464 77.1153 44.5457 76.7899 44.5457Z" fill="white"/>
<path d="M12.3271 55.0948C12.6466 54.6106 12.8213 54.2646 13.0713 53.9848C13.4953 53.5106 13.9312 53.0343 14.424 52.6355C16.3508 51.0764 18.2293 49.479 19.4874 47.2009C20.4962 48.2143 21.7099 48.3003 22.9872 48.2632C25.1515 48.1997 27.3171 48.1786 29.4827 48.1766C35.7573 48.17 42.0326 48.1759 48.3072 48.1898C50.0561 48.1938 51.8043 48.2348 53.5525 48.2745C54.6969 48.3003 55.7711 48.1362 56.6396 47.2697C56.713 47.3207 56.797 47.3491 56.8307 47.4066C57.9354 49.3163 59.5057 50.7966 61.2083 52.1533C62.0794 52.8478 62.9274 53.5635 63.532 54.5173C63.6173 54.6523 63.6781 54.8031 63.821 55.0895C46.6476 55.1212 29.5932 55.112 12.3271 55.0948Z" fill="white"/>
<path d="M77.7492 11.8413C78.7421 10.7717 79.684 9.75705 80.6252 8.74303C80.7198 8.64117 80.8124 8.53865 80.907 8.43678C81.7471 7.53522 81.9925 7.51868 82.8788 8.33161C83.9206 9.28808 84.9565 10.2512 85.993 11.2129C86.1557 11.3637 86.323 11.5119 86.4672 11.6792C86.8562 12.1317 86.8952 12.4975 86.4996 12.938C85.4254 14.1346 84.334 15.3166 83.2201 16.4768C82.7578 16.9583 82.3166 16.9312 81.7629 16.4312C80.9606 15.7062 80.1834 14.9535 79.3956 14.2126C78.8744 13.7232 78.3525 13.2337 77.8034 12.7184C76.7636 13.8363 75.745 14.9303 74.7263 16.025C74.594 16.1672 74.4684 16.3161 74.3268 16.4484C73.8387 16.9061 73.4451 16.9392 72.9338 16.5092C72.4463 16.0991 71.9939 15.648 71.5282 15.2114C70.7596 14.4904 69.983 13.7774 69.2303 13.0405C68.6277 12.4505 68.6105 12.0907 69.1721 11.4742C70.1808 10.3676 71.2041 9.27353 72.2399 8.1927C72.8213 7.58549 73.1514 7.58019 73.795 8.16823C75.1047 9.36415 76.3945 10.5799 77.7492 11.8413Z" fill="white"/>
<path d="M38.1934 62.0903C37.1291 63.2373 36.0781 64.3737 35.023 65.5061C34.8537 65.688 34.6804 65.8712 34.4853 66.024C34.1936 66.2529 33.8701 66.2688 33.5586 66.0558C33.3767 65.9314 33.2014 65.7918 33.0406 65.641C31.9459 64.6178 30.8519 63.5938 29.7664 62.5613C28.9733 61.8072 28.9654 61.4884 29.7049 60.694C30.6309 59.6985 31.5603 58.7063 32.4943 57.7181C33.2133 56.9581 33.5394 56.9429 34.2961 57.642C35.4775 58.7347 36.6502 59.8367 37.8283 60.9334C37.9268 61.0247 38.0327 61.1087 38.1497 61.2086C39.2471 60.0233 40.316 58.8624 41.3935 57.7095C42.094 56.9594 42.4353 56.9462 43.1993 57.6453C44.3251 58.6752 45.4476 59.7097 46.5589 60.7555C47.3473 61.4983 47.3486 61.833 46.6151 62.6281C45.7301 63.5859 44.843 64.5417 43.9567 65.4982C43.1047 66.4176 42.8091 66.4335 41.9128 65.5921C40.6772 64.4339 39.4482 63.2724 38.1934 62.0903Z" fill="white"/>
<path d="M52.9238 4.90061C54.0423 3.69477 55.1106 2.53193 56.1921 1.38165C56.9084 0.619653 57.2379 0.60444 57.9985 1.30757C59.1395 2.3626 60.2706 3.42887 61.3945 4.50175C62.1095 5.18371 62.1201 5.52834 61.4513 6.25396C60.473 7.31494 59.4875 8.3693 58.49 9.41176C57.896 10.0335 57.5871 10.0474 56.9409 9.45938C55.612 8.2509 54.3016 7.02125 52.98 5.79623C51.9581 6.89094 50.9375 7.98499 49.9148 9.07772C49.7442 9.26029 49.5808 9.45277 49.3903 9.61218C48.9835 9.95415 48.6925 9.97267 48.2638 9.66179C47.996 9.46732 47.7605 9.22655 47.5164 9.00033C46.5196 8.07495 45.5188 7.1542 44.5326 6.21824C43.7725 5.49725 43.7686 5.19694 44.4823 4.41179C45.4149 3.38455 46.3503 2.35929 47.2961 1.34461C47.9616 0.630898 48.3227 0.615023 49.0457 1.28045C50.3309 2.46578 51.6016 3.66501 52.9238 4.90061Z" fill="white"/>
</svg>
